<mxfile host="app.diagrams.net" modified="2022-06-05T21:12:21.316Z" agent="5.0 (Macintosh; Intel Mac OS X 10_15_7) AppleWebKit/537.36 (KHTML, like Gecko) Chrome/102.0.5005.61 Safari/537.36" etag="vGLsROumph-QuDINfsJi" version="18.1.1" type="github" pages="3">
  <diagram id="NTXuN-DpAhFUwy5XXqnT" name="Architecture">
    <mxGraphModel dx="946" dy="608" grid="1" gridSize="10" guides="1" tooltips="1" connect="1" arrows="1" fold="1" page="1" pageScale="1" pageWidth="850" pageHeight="1100" math="0" shadow="0">
      <root>
        <mxCell id="-KOEicAbmXbd-GZ6eH1_-0" />
        <mxCell id="-KOEicAbmXbd-GZ6eH1_-1" parent="-KOEicAbmXbd-GZ6eH1_-0" />
        <mxCell id="BGMvoTLmsf2Ejd6T7hRA-62" value="Boa SaÃºde [ Modules ]" style="swimlane;childLayout=stackLayout;resizeParent=1;resizeParentMax=0;horizontal=1;startSize=20;horizontalStack=0;fontColor=#4277BB;" parent="-KOEicAbmXbd-GZ6eH1_-1" vertex="1">
          <mxGeometry x="370" y="30" width="310" height="500" as="geometry" />
        </mxCell>
        <mxCell id="BGMvoTLmsf2Ejd6T7hRA-63" value="Registration&#xa;Information" style="swimlane;startSize=40;horizontal=0;fontColor=#4277BB;" parent="BGMvoTLmsf2Ejd6T7hRA-62" vertex="1">
          <mxGeometry y="20" width="310" height="120" as="geometry" />
        </mxCell>
        <mxCell id="xiwX5In6Iz0CG_cuDGGL-2" value="" style="group" parent="BGMvoTLmsf2Ejd6T7hRA-63" vertex="1" connectable="0">
          <mxGeometry x="60" y="20" width="230" height="50" as="geometry" />
        </mxCell>
        <mxCell id="BGMvoTLmsf2Ejd6T7hRA-19" value="User&lt;br&gt;Microservices" style="aspect=fixed;perimeter=ellipsePerimeter;html=1;align=center;shadow=0;dashed=0;fontColor=#4277BB;labelBackgroundColor=#ffffff;fontSize=12;spacingTop=3;image;image=img/lib/ibm/security/api_security.svg;" parent="xiwX5In6Iz0CG_cuDGGL-2" vertex="1">
          <mxGeometry width="50" height="50" as="geometry" />
        </mxCell>
        <mxCell id="xiwX5In6Iz0CG_cuDGGL-0" value="Plan&lt;br&gt;Microservices" style="aspect=fixed;perimeter=ellipsePerimeter;html=1;align=center;shadow=0;dashed=0;fontColor=#4277BB;labelBackgroundColor=#ffffff;fontSize=12;spacingTop=3;image;image=img/lib/ibm/security/api_security.svg;" parent="xiwX5In6Iz0CG_cuDGGL-2" vertex="1">
          <mxGeometry x="90" width="50" height="50" as="geometry" />
        </mxCell>
        <mxCell id="xiwX5In6Iz0CG_cuDGGL-1" value="&lt;font color=&quot;#4277bb&quot;&gt;Database&lt;br&gt;&lt;/font&gt;" style="fillColor=#999999;verticalLabelPosition=bottom;sketch=0;html=1;strokeColor=#ffffff;verticalAlign=top;align=center;points=[[0.145,0.145,0],[0.5,0,0],[0.855,0.145,0],[1,0.5,0],[0.855,0.855,0],[0.5,1,0],[0.145,0.855,0],[0,0.5,0]];pointerEvents=1;shape=mxgraph.cisco_safe.compositeIcon;bgIcon=ellipse;resIcon=mxgraph.cisco_safe.capability.database;" parent="xiwX5In6Iz0CG_cuDGGL-2" vertex="1">
          <mxGeometry x="180" width="50" height="50" as="geometry" />
        </mxCell>
        <mxCell id="BGMvoTLmsf2Ejd6T7hRA-64" value="Services to&#xa;Members" style="swimlane;startSize=40;horizontal=0;fontColor=#4277BB;" parent="BGMvoTLmsf2Ejd6T7hRA-62" vertex="1">
          <mxGeometry y="140" width="310" height="120" as="geometry" />
        </mxCell>
        <mxCell id="BGMvoTLmsf2Ejd6T7hRA-68" value="Operational&lt;br&gt;Microservices" style="aspect=fixed;perimeter=ellipsePerimeter;html=1;align=center;shadow=0;dashed=0;fontColor=#4277BB;labelBackgroundColor=#ffffff;fontSize=12;spacingTop=3;image;image=img/lib/ibm/security/api_security.svg;" parent="BGMvoTLmsf2Ejd6T7hRA-64" vertex="1">
          <mxGeometry x="150" y="20" width="50" height="50" as="geometry" />
        </mxCell>
        <mxCell id="ONOn6ML16PO1Yqy8pq52-0" value="&lt;font color=&quot;#4277bb&quot;&gt;Workflow&lt;br&gt;Solution&lt;br&gt;&lt;/font&gt;" style="sketch=0;outlineConnect=0;fontColor=#232F3E;gradientColor=none;fillColor=#4D27AA;strokeColor=none;dashed=0;verticalLabelPosition=bottom;verticalAlign=top;align=center;html=1;fontSize=12;fontStyle=0;aspect=fixed;pointerEvents=1;shape=mxgraph.aws4.flow_logs;" parent="BGMvoTLmsf2Ejd6T7hRA-64" vertex="1">
          <mxGeometry x="60.00000000000006" y="20" width="50" height="50" as="geometry" />
        </mxCell>
        <mxCell id="xiwX5In6Iz0CG_cuDGGL-7" value="&lt;font color=&quot;#4277bb&quot;&gt;Database&lt;br&gt;&lt;/font&gt;" style="fillColor=#999999;verticalLabelPosition=bottom;sketch=0;html=1;strokeColor=#ffffff;verticalAlign=top;align=center;points=[[0.145,0.145,0],[0.5,0,0],[0.855,0.145,0],[1,0.5,0],[0.855,0.855,0],[0.5,1,0],[0.145,0.855,0],[0,0.5,0]];pointerEvents=1;shape=mxgraph.cisco_safe.compositeIcon;bgIcon=ellipse;resIcon=mxgraph.cisco_safe.capability.database;" parent="BGMvoTLmsf2Ejd6T7hRA-64" vertex="1">
          <mxGeometry x="240" y="20" width="50" height="50" as="geometry" />
        </mxCell>
        <mxCell id="BGMvoTLmsf2Ejd6T7hRA-66" value="Management and&#xa;Strategy" style="swimlane;startSize=40;horizontal=0;fontColor=#4277BB;" parent="BGMvoTLmsf2Ejd6T7hRA-62" vertex="1">
          <mxGeometry y="260" width="310" height="120" as="geometry" />
        </mxCell>
        <mxCell id="ONOn6ML16PO1Yqy8pq52-2" value="Software from&lt;br&gt;Market" style="sketch=0;aspect=fixed;pointerEvents=1;shadow=0;dashed=0;html=1;strokeColor=none;labelPosition=center;verticalLabelPosition=bottom;verticalAlign=top;align=center;fillColor=#00188D;shape=mxgraph.mscae.enterprise.app_generic;fontColor=#4277BB;" parent="BGMvoTLmsf2Ejd6T7hRA-66" vertex="1">
          <mxGeometry x="60" y="30" width="51.28" height="40" as="geometry" />
        </mxCell>
        <mxCell id="__xBSyMnRrZkImUMQj33-0" value="&lt;font color=&quot;#4277bb&quot;&gt;Database&lt;br&gt;&lt;/font&gt;" style="fillColor=#999999;verticalLabelPosition=bottom;sketch=0;html=1;strokeColor=#ffffff;verticalAlign=top;align=center;points=[[0.145,0.145,0],[0.5,0,0],[0.855,0.145,0],[1,0.5,0],[0.855,0.855,0],[0.5,1,0],[0.145,0.855,0],[0,0.5,0]];pointerEvents=1;shape=mxgraph.cisco_safe.compositeIcon;bgIcon=ellipse;resIcon=mxgraph.cisco_safe.capability.database;" parent="BGMvoTLmsf2Ejd6T7hRA-66" vertex="1">
          <mxGeometry x="240" y="25" width="50" height="50" as="geometry" />
        </mxCell>
        <mxCell id="xiwX5In6Iz0CG_cuDGGL-26" value="On Premises&lt;br&gt;Servers" style="sketch=0;aspect=fixed;pointerEvents=1;shadow=0;dashed=0;html=1;strokeColor=none;labelPosition=center;verticalLabelPosition=bottom;verticalAlign=top;align=center;fillColor=#00188D;shape=mxgraph.mscae.enterprise.cluster_server;fontColor=#4277BB;" parent="BGMvoTLmsf2Ejd6T7hRA-66" vertex="1">
          <mxGeometry x="150" y="20" width="44" height="55" as="geometry" />
        </mxCell>
        <mxCell id="BGMvoTLmsf2Ejd6T7hRA-67" value="Data&#xa;Science" style="swimlane;startSize=40;horizontal=0;fontColor=#4277BB;" parent="BGMvoTLmsf2Ejd6T7hRA-62" vertex="1">
          <mxGeometry y="380" width="310" height="120" as="geometry" />
        </mxCell>
        <mxCell id="xiwX5In6Iz0CG_cuDGGL-10" value="Data&lt;br&gt;Lake" style="sketch=0;aspect=fixed;html=1;points=[];align=center;image;fontSize=12;image=img/lib/mscae/Data_Lake.svg;fontColor=#4277BB;spacingTop=0;" parent="BGMvoTLmsf2Ejd6T7hRA-67" vertex="1">
          <mxGeometry x="240" y="20" width="40.85" height="53.75" as="geometry" />
        </mxCell>
        <mxCell id="xiwX5In6Iz0CG_cuDGGL-11" value="Machine&lt;br&gt;Learning" style="sketch=0;outlineConnect=0;fontColor=#4277BB;gradientColor=none;fillColor=#067F68;strokeColor=none;dashed=0;verticalLabelPosition=bottom;verticalAlign=top;align=center;html=1;fontSize=12;fontStyle=0;aspect=fixed;pointerEvents=1;shape=mxgraph.aws4.sagemaker_model;spacingTop=0;" parent="BGMvoTLmsf2Ejd6T7hRA-67" vertex="1">
          <mxGeometry x="60" y="19.75" width="54" height="54" as="geometry" />
        </mxCell>
        <mxCell id="xiwX5In6Iz0CG_cuDGGL-13" value="Data&lt;br&gt;Analytics" style="sketch=0;pointerEvents=1;shadow=0;dashed=0;html=1;strokeColor=none;fillColor=#434445;aspect=fixed;labelPosition=center;verticalLabelPosition=bottom;verticalAlign=top;align=center;outlineConnect=0;shape=mxgraph.vvd.nsx_dashboard;fontColor=#4277BB;spacingTop=0;" parent="BGMvoTLmsf2Ejd6T7hRA-67" vertex="1">
          <mxGeometry x="150" y="27.25" width="50" height="46.5" as="geometry" />
        </mxCell>
        <mxCell id="xiwX5In6Iz0CG_cuDGGL-18" value="" style="group" parent="-KOEicAbmXbd-GZ6eH1_-1" vertex="1" connectable="0">
          <mxGeometry x="40" y="160" width="210" height="254.5" as="geometry" />
        </mxCell>
        <mxCell id="BGMvoTLmsf2Ejd6T7hRA-1" value="Client" style="fillColor=#28A8E0;verticalLabelPosition=bottom;sketch=0;html=1;strokeColor=#ffffff;verticalAlign=top;align=center;points=[[0.145,0.145,0],[0.5,0,0],[0.855,0.145,0],[1,0.5,0],[0.855,0.855,0],[0.5,1,0],[0.145,0.855,0],[0,0.5,0]];pointerEvents=1;shape=mxgraph.cisco_safe.compositeIcon;bgIcon=ellipse;resIcon=mxgraph.cisco_safe.capability.mobile_device_manager;" parent="xiwX5In6Iz0CG_cuDGGL-18" vertex="1">
          <mxGeometry y="104.5" width="50" height="50" as="geometry" />
        </mxCell>
        <mxCell id="BGMvoTLmsf2Ejd6T7hRA-57" value="" style="group" parent="xiwX5In6Iz0CG_cuDGGL-18" vertex="1" connectable="0">
          <mxGeometry x="160" width="50" height="254.5" as="geometry" />
        </mxCell>
        <mxCell id="BGMvoTLmsf2Ejd6T7hRA-4" value="Gateway" style="sketch=0;aspect=fixed;pointerEvents=1;shadow=0;dashed=0;html=1;strokeColor=none;labelPosition=center;verticalLabelPosition=bottom;verticalAlign=top;align=center;fillColor=#00188D;shape=mxgraph.mscae.enterprise.gateway" parent="BGMvoTLmsf2Ejd6T7hRA-57" vertex="1">
          <mxGeometry y="104.5" width="50" height="50" as="geometry" />
        </mxCell>
        <mxCell id="BGMvoTLmsf2Ejd6T7hRA-5" value="Identity Access&lt;br&gt;Management" style="aspect=fixed;perimeter=ellipsePerimeter;html=1;align=center;shadow=0;dashed=0;fontColor=#4277BB;labelBackgroundColor=#ffffff;fontSize=12;spacingTop=3;image;image=img/lib/ibm/security/identity_access_management.svg;" parent="BGMvoTLmsf2Ejd6T7hRA-57" vertex="1">
          <mxGeometry y="204.5" width="50" height="50" as="geometry" />
        </mxCell>
        <mxCell id="BGMvoTLmsf2Ejd6T7hRA-42" value="&lt;font color=&quot;#4277bb&quot;&gt;System Health&lt;br&gt;Monitoring&lt;/font&gt;" style="sketch=0;pointerEvents=1;shadow=0;dashed=0;html=1;strokeColor=none;labelPosition=center;verticalLabelPosition=bottom;verticalAlign=top;align=center;fillColor=#505050;shape=mxgraph.mscae.intune.device_health;fontColor=#6666FF;" parent="BGMvoTLmsf2Ejd6T7hRA-57" vertex="1">
          <mxGeometry width="50" height="31" as="geometry" />
        </mxCell>
        <mxCell id="BGMvoTLmsf2Ejd6T7hRA-0" style="edgeStyle=orthogonalEdgeStyle;rounded=0;orthogonalLoop=1;jettySize=auto;html=1;entryX=0;entryY=0.5;entryDx=0;entryDy=0;entryPerimeter=0;fontSize=7;fontColor=#4277BB;endArrow=none;endFill=0;" parent="xiwX5In6Iz0CG_cuDGGL-18" source="BGMvoTLmsf2Ejd6T7hRA-1" target="BGMvoTLmsf2Ejd6T7hRA-4" edge="1">
          <mxGeometry relative="1" as="geometry" />
        </mxCell>
        <mxCell id="xiwX5In6Iz0CG_cuDGGL-22" value="HTTPS" style="endArrow=classic;startArrow=classic;html=1;rounded=0;dashed=1;fontColor=#4277BB;exitX=0.855;exitY=0.145;exitDx=0;exitDy=0;exitPerimeter=0;entryX=0;entryY=0.5;entryDx=0;entryDy=0;" parent="-KOEicAbmXbd-GZ6eH1_-1" source="BGMvoTLmsf2Ejd6T7hRA-4" target="BGMvoTLmsf2Ejd6T7hRA-63" edge="1">
          <mxGeometry x="0.0285" y="-2" width="50" height="50" relative="1" as="geometry">
            <mxPoint x="285" y="280" as="sourcePoint" />
            <mxPoint x="335" y="230" as="targetPoint" />
            <mxPoint as="offset" />
          </mxGeometry>
        </mxCell>
        <mxCell id="xiwX5In6Iz0CG_cuDGGL-23" value="HTTPS" style="endArrow=classic;startArrow=classic;html=1;rounded=0;dashed=1;fontColor=#4277BB;exitX=1;exitY=0.5;exitDx=0;exitDy=0;exitPerimeter=0;entryX=0;entryY=0.5;entryDx=0;entryDy=0;" parent="-KOEicAbmXbd-GZ6eH1_-1" source="BGMvoTLmsf2Ejd6T7hRA-4" target="BGMvoTLmsf2Ejd6T7hRA-64" edge="1">
          <mxGeometry width="50" height="50" relative="1" as="geometry">
            <mxPoint x="260" y="299.4999999999998" as="sourcePoint" />
            <mxPoint x="380" y="120" as="targetPoint" />
          </mxGeometry>
        </mxCell>
        <mxCell id="xiwX5In6Iz0CG_cuDGGL-24" value="HTTPS" style="endArrow=classic;startArrow=classic;html=1;rounded=0;dashed=1;fontColor=#4277BB;exitX=1;exitY=0.5;exitDx=0;exitDy=0;exitPerimeter=0;entryX=0;entryY=0.5;entryDx=0;entryDy=0;" parent="-KOEicAbmXbd-GZ6eH1_-1" source="BGMvoTLmsf2Ejd6T7hRA-4" target="BGMvoTLmsf2Ejd6T7hRA-66" edge="1">
          <mxGeometry width="50" height="50" relative="1" as="geometry">
            <mxPoint x="290" y="389.4999999999998" as="sourcePoint" />
            <mxPoint x="410" y="210" as="targetPoint" />
          </mxGeometry>
        </mxCell>
        <mxCell id="xiwX5In6Iz0CG_cuDGGL-25" value="HTTPS" style="endArrow=classic;startArrow=classic;html=1;rounded=0;dashed=1;fontColor=#4277BB;exitX=0.855;exitY=0.855;exitDx=0;exitDy=0;exitPerimeter=0;entryX=0;entryY=0.5;entryDx=0;entryDy=0;" parent="-KOEicAbmXbd-GZ6eH1_-1" source="BGMvoTLmsf2Ejd6T7hRA-4" target="BGMvoTLmsf2Ejd6T7hRA-67" edge="1">
          <mxGeometry x="0.0321" y="2" width="50" height="50" relative="1" as="geometry">
            <mxPoint x="260" y="479.4999999999998" as="sourcePoint" />
            <mxPoint x="380" y="300" as="targetPoint" />
            <mxPoint as="offset" />
          </mxGeometry>
        </mxCell>
        <mxCell id="9SV6m-sMSWaajPHSBhGp-14" value="3rd Party&lt;br&gt;API" style="sketch=0;pointerEvents=1;shadow=0;dashed=0;html=1;strokeColor=none;fillColor=#505050;labelPosition=center;verticalLabelPosition=bottom;verticalAlign=top;outlineConnect=0;align=center;shape=mxgraph.office.communications.3rd_party_service;fontColor=#4277BB;spacingTop=3;" parent="-KOEicAbmXbd-GZ6eH1_-1" vertex="1">
          <mxGeometry x="720" y="310" width="50" height="50" as="geometry" />
        </mxCell>
        <mxCell id="9SV6m-sMSWaajPHSBhGp-15" value="Legacy&#xa;Systems" style="shape=image;verticalLabelPosition=bottom;labelBackgroundColor=default;verticalAlign=top;aspect=fixed;imageAspect=0;image=https://static.thenounproject.com/png/2755481-200.png;fontColor=#4277BB;spacingTop=3;" parent="-KOEicAbmXbd-GZ6eH1_-1" vertex="1">
          <mxGeometry x="718.92" y="70" width="50" height="50" as="geometry" />
        </mxCell>
        <mxCell id="9SV6m-sMSWaajPHSBhGp-21" value="Message&#xa;Broker" style="shape=image;verticalLabelPosition=bottom;labelBackgroundColor=default;verticalAlign=top;aspect=fixed;imageAspect=0;image=data:image/png,iVBORw0KGgoAAAANSUhEUgAAAhsAAAIaCAMAAAC+pX8qAAADAFBMVEUAAAC5ur25ur25ur25ur25ur25ur25ur25ur25ur25ur25ur25ur25ur25ur25ur25ur25ur25ur25ur25ur25ur25ur25ur25ur25ur25ur25ur25ur25ur25ur25ur25ur25ur25ur25ur25ur25ur25ur25ur25ur25ur25ur25ur25ur25ur25ur25ur25ur25ur25ur25ur25ur25ur25ur25ur25ur25ur25ur25ur25ur25ur25ur25ur25ur25ur25ur25ur25ur25ur25ur25ur25ur25ur25ur25ur25ur25ur25ur25ur25ur25ur25ur25ur25ur25ur25ur25ur25ur25ur25ur25ur25ur25ur25ur25ur25ur25ur25ur25ur25ur25ur25ur25ur25ur25ur25ur25ur25ur25ur25ur25ur25ur25ur25ur25ur25ur25ur25ur25ur25ur25ur25ur25ur25ur25ur25ur25ur25ur25ur25ur25ur25ur25ur25ur25ur25ur25ur25ur25ur25ur25ur25ur25ur25ur25ur25ur25ur25ur25ur25ur25ur25ur25ur25ur25ur25ur25ur25ur25ur25ur25ur25ur25ur25ur25ur25ur25ur25ur25ur25ur25ur25ur25ur25ur25ur25ur25ur25ur25ur25ur25ur25ur25ur25ur25ur25ur25ur25ur25ur25ur25ur25ur25ur25ur25ur25ur25ur25ur25ur25ur25ur25ur25ur25ur25ur25ur25ur25ur25ur25ur25ur25ur25ur25ur25ur25ur25ur25ur25ur25ur25ur25ur25ur25ur25ur25ur25ur25ur25ur25ur25ur25ur25ur25ur25ur25ur25ur25ur25ur25ur25ur25ur25ur25ur25ur25ur25ur25ur25ur25ur25ur25ur25ur25ur25ur3jYpd1AAABAHRSTlMACBEBAhcsQFlufYycq7vL1d3p7vz/9uLOxbWml4d3ZE45JAwEID9deZSxzej93sKlilEzE0ZvuNz68M9gNw8bS3ijzPTkk2cKIrzq2KlFEAk8c67n/jgFHlePyL+CDRZbookGQvh8Nihs86QSR9/GJgtV74VY9+GLNAdQp9uELTqZ0nIaLiXHYQNSvnbaQbYYKmava+Y+uuBW2ag9+ZAUlftq68Mxm21w8tOSDpbloDIZaX7U8eM7HWLJ7K3KiLRUmB+9HGieY8QpQ4Y1n0RldY5asqpP7XvBXEoVndBJwIFxf7d6sE2AXiEw16GaU/UnK7mRX43RSEx0I7Osg9YvhQdrzgAALqdJREFUeAHswQNjJGkQANDK9sTOdMW2bdtOJljbtm3btm3bxu0Zv+RsZ/tr13tACCGEEEIIkZdZp19xoGPEYG5haWVtY2tn7+Do5Oxi5PEPXI1uzu4enl7ePr5+/gGBQUA0LzgkNCw8IjIqOgY7xDU2Lj7BOjEpGTSHcCEpqRFp6RkoUGaWvU92Ti5oAsnLLygsKkamShxKy3LKgahXhZVtZRWKha+uKaitA6I29Q2NTc0oPlN1oXVLKxCVaGvv3CUDJeTatVtKd1A40qNnrxKUA+/YO6UcFIr06evjbkIZ9evaf4ABlIYMHOQ5GBWgaojVUFAM0meY93BUDn6E70hQADJqdPwYVBynsUkcEDmVj2sajwo1YeIkIDKZPGVqMSratOkzgEiOmzkrE1Vg9py5ICXSZpOOasF7jq4HIo3J7ZUmVJXM0nlAxDc/wQVVaMHCciBiWrR4iQlVKjNiJBCxJC+dgGpmSss3ABHBDDtXVL1lqd2BMbJ8hQk1YYzPSmCHLBpXhNrRz24VsEH6rHZGbYlZkwREOLO1E1CDVgQAEaZ+zjrUKIf1QD5cn7XrUMM2DADyYYIXbkSNi5wHpOO4TZtR+2K2BALpoK0LUB+2bd8BpAMGNqF+jPGtB/I/7di5C3VlghUH5H8I3r0HdWfvPiD/yXI26lHM/h1A/lWePerVmAMGIP8o+OAh1DHHJCD/YEAWymSMcYLz94oOO38v2uiK8uCP5AL5G0ePxaBkYo47ep6Y2JiduPxkxVAz+IvcUwNzhm06febIlq5nz6F01i2GvyD551ECu2IdZi1tv3CxFTqg+6qUS9OnXr6CUri6Ev6AJMejyAZfO1GQOLIVBKjLyb4eOS0GxWVcyMFvSLsLiuj4jek35xuAkaCcslsLXFFEG27Dz8jQLSiWQ3d8Eu8Ce6377t0/HIMiOfcAfkTy16Eomu0PJgWDiDrlX3/YD0URaQ5Aus8yIXvGprWPQApmj59c5pG9PTdB9wakI2v8CJuni0BCdVP2n0fmngWBrhnCM5At45CeySCDeeF7Y5CtZZNAx/LuIFMlO5+3gmx6vFjRD1nKeGkAvcq/ggydf9XCgcyOvn7TDxlyWAm6FHzdhMxU7VxvAEWou5TGIzPNy0GH8uKQlX5v37WCgsxtnI2s7PLlQG9SqpCRokFDQXGSjnyEjNxIBl3h3scgE4dunQRlMuv5MbKx8SToSNBVZCLLLwgUbOCrMciC6yegG/OdkIFdb7eC0gWddkIWtgeDPnw6BoUzPrkLasA9v2FC4bp+BnrwMgYF23iwO6jGqmfbULDYGaB5fT5Hwb4YFwyqMrf3IRTq0JegcclfoVBF7zhQnaFfG1Eg/hvQtIHpKJDHl6BO37F354FRlecawB+YBFesmjwBwQQJsQsQWVwoQcAFJQhtqDghhVCRsBRELyaYYATRiNQRl4Ar1iEMNFgQRZBYKApRgtrGlSpGQUSxSxI0SHuNolfvfq9mTjLvd875zneG8vu7VV/ykpnznfd7n7VTt9Ch58biyPVIEp25+ALEr7UfZtGZ/T1wpCospiMbqwOIa+dsHUZHepXjyPRBJp0o2ZyAuLf+9AiduPYPOAIlLKMTRR+NxhFh8Z/pxK5HcMQZ25cORJZX4IhxTC86kPIXHGGyt9GB7YtxJEnYfCrti0zEESWnD+07pT+ONDknDKRtwek4giQOom1T/joaR6DF79O+D3HEGDqKtp00y5vuHVy94vit/+H4FdWDE+GBwN9G0rYTAjgy5P2YdvXeCe0Sq8fVJfE7kurGFepvkJkObm09FsCRoP5a2rVuJjRrmN05SEvBzrMboNkDD9Ou5wKIf7M60aZrr4FeV6Y1sk2NaVdCq9FzIrTplVD8t8YTtCe4vAe0mr8uzJjC626DVjesoU1XhRDfFl5Cezr9FFrd1jNIkaDmffSlkzJpzwsBxLP0p2nPgSHQaf2eTIpl7lkPnX72Y9rzcQDxK+8h2rLlDugUGJ5FJVnDA9Doultoz6UBxKuh82hLfg102rSIyvI3QadPkmjLG4hTu8toR+SjBOh0YxJtSOoPnfLqaMvxiEtDfk87SnKhUyg1SFuCW0PQKPRUMu24D3GodLsfb3+WdqRtHUuh06sjaUNwIuJOqKcfb42vXUQHFq314WaB5DMQbx6nDVd83+D7YIFBidApY06Q6poGI75cSBv+ZSi0OqeMDpVVQKvCGVQ38iDiycQg1d1SAK2yx9Ox8dnQ6tN5VPd0DeLH5DCVDdxh8BuQXM8QtGp/iOrKhiBezM+isl2TodkkumIS9ApdSnXbxyI+1DxNZQ8vhGZ3BOmK4CfQbEOEyh5HXMh+lsouaw/NNiWxLSXPpN6+d9rZ0/benvpMJ7YpKQ+anVtEZb9FHAh0pLJXxkKzQD5bFawbvhDftnB4XZCtyw9As09LjsxjjtlUNiEA3ZawNVW1eYiWV1vFVi2Bbgveo6qs+fC7nUEqinSDdolZtJayrz2std+XwlZklUO3XzxIVQ/thr892URFTRdAv1W0tm0EWjdiG1uxCtqNvYiqFmXAz3Y/REVFv4N+HTJppXg62nZfMS1ldoB2gb9T1TL4WOgkKurdAA/0pZVODYiloYSW+sIDH1LVP+Bf/0pF1y6EB9IjtLBxAWJbsJFWIunwwPQg1RS/DL9aSkWjauCFE2lhzW5I7F5DKyfCC+cnU81D58CfDq6mmjXl8EJiWPp+Sn7KG06EF3YmU809AfhR9mdUM2g3PJHGaFMqIdXQRAtp8MTSgVTzEfzoRKrpfA680choKyDXjRYa4Y3+YSpJvhv+8w+qKdsNbzQwWheo6EILlfDGJxEq6V0Ov1ncRCUn7zZ4iF88AirqixltNjyyNJlKTgrAX0rfo5KH18MrvRhlH9TsY7TO8MrEZCq5E/4yjkpOqYFXEoNsqSoHanKqGCVYDq9sDlJF+GX4SXOQKnqnwzPVjJIKVbWMVg3PXE4lP/4F/COxt/nXyfLfaMmboKom2ezbi9lUchX8YxtVNHWHh95nSw9C3SFGed/H130+gV+8SBXhz+GlJLb0GtR1Y5QseCjhaqpYWQ5/OHO1jy9wljPKJqirYbRyeKhgO1Vsgy8EFlHFhfBULls6C3acxSi58NKQMqroBj84z9fD8oVsaQzseIZRCv18tWN1PcxbmEIF2zPgrRVsqRZ21DLKBnirsokKDgVgWiCfCkYNgcemsqXNsGMzozwFj52RTAUvwrTXqGBkOryWypY+hx2fM0qqv7cTJC2AWQuyKBeeDG3kt2C/Dzu+zyhbfT4H8WeYda/6d2fTvTEYdnT3RW8UnEYFS2HSHVTwMQxI1fd7IxXeW38J5Z4YAnN6PE25fymAAVP1fd94Cgbkhin3I5gzh3L3D4UJK1x6TrmdUTb4/gVF8sswZX6EYgN/ByMK9Z1vFPp/LrdXCGYE+lDuC5iRq+9cNBdGjB5EuUfjYHq4ZwBmlLOlEthRov9dm1R6FsWKdsOEtVdQ7Nr2MKWILaVD3WGz7+jtr6daBRNSKRaeBmPed2W1yhJGqYMxP6JYZgO8d3gKxdJgzjK2dMidua9lMKbdZxTrE/D1iej2BJhTzZaSa1yZF62Ok9tAx8Jrkym2ZQEMKg+68BRb6+kdBIHhFHuoHbyV0Jlib8GoXi7cT8ny9u6SQE+KvQ5vTaTYCzBrtvN7bX9ltNkwKnEkpbIq4KXShyhVstZwNHwDo6TUQ0V9iviutHe19qfY3+GlWykV/KPxaPhGHffoRxmPwV9HqYHp8E7OLko9Zj4aPo3O3pNtED+We1rrkKcp1deXV/BOuc5ANLxgp1NxJaQqi8U7nbyt9QJKZc6HV3bPoFDwp36Iht/j/r6vE/0Qg38RpXr6cGzjFV9Ewy+MMFqjcE9go3iHpOe1nnMqhYKD4Y3yJgr1numPaPi+tLBR8o9av1H+Ae59rUsp9SC88XdK/dxANLx8Z3WJaC+xfGe1gVrvodQj8MKCYtVmNR8Nv4pWijegbTuKKd88a6LWESkUOgQvvEGhKQt9Ew1fnkVLX9ajdfVfKmZkGKj1I0oNhn4Vwyi0z3Q0vCBbJ+WvObA25MMUtmKHf2LwCxoptM1PZxtntTMYDS+/tltVOxTRamqr1DO5TNR6DYWCZ0O3nCIK3Wg+Gl6W5Zd8aMlhfNvhJQOS1bP8DNV6D4XGQLePKHSZ+Wh4hSHLkq9qz2/+j5zH5vNrvypRzwA1WOsvI5TJnAW9Rp9KmUgHA9Hw5rODDdT6mF/unL5GoceNRcMbyBw3Wus5SZRJWQ+dAifL50kM/5gMNKShWs+j0L9Bp79Q6Id+/PVeofmDzFCtY0dRpqgHNMqnzCXZvoyGL3f6pbDclzH4f6HQdOhTSaHNBqLh9T9Mvr/WpzH4J1Hm5ID5K9wbQ8aj4TUcQo1p59cY/JeDlLkGupyTQpml/o2GD221e3jdL+TfGPx7jR+cf0GZjQl+jobvn0Qbij7xcwx+h0yKZKZDj4SzKHO9v6Ph8/KpLD/P3zH4fSnzhuEH2K8TDETD6x2y2RHweQz+rGSKbGkHLb6kzE4D0fCGh/PM19qXMhOhw9AIRUYlxEM0/Px7pUO9986Phxj8xZkU6QMd3pZ2ZpxEwzdcNJAxDbyoIU5i8N+kzB8MfhN9OBQ30fDlaXexTXelJcZNDP5tQYqMg/tepcwP4ioavmE2W9N5dmVcxeDvp8jIArhuLkVKMuIsGp6tibcY/GOMrUNZm0KRL8xHw5vpDfO1fs9UPMJmihT9wnw0vJneMF/rUoqEd2tYxSgxx3w0vKHeMF9r6CGKHAd3PR+kRCTPfDS8qd4wX+sXFLnYzOFGR/PR8MZ6w3ytOTMokg5XraHIMeaj4c31hvlaP6bIVLjpU4psNB8Nb7A3zNe6OCj8MbnprxTZYT4a3mRvmK+1jiLz4aJGSqzuYT4a3mRvmK91J0Vmwz23UeQW89HwRnvDfK2lKykxCu6ZQJGXzUfDm+0N87X+K0UWwzUnU+Iz89HwhnvDfK0HKfI23DKLItPNR8Ob7g3ztf7K4+OvNEqEZ5qPhjfdG+ZrHU6J4PNwyW8oMcZ8NLzx3jBfa/tiT9+pXJlJif7mo+HN94b5Wn9NiUOeZn3uKjAfDW++N8zXegElpvSAK96kxOP+i4Y30Bvmay3YJd7G5tzYLEoc48NoeAO9Yb7WVZR4Dm74GSXuT/BhNLyB3jBf62RKlMANN8lzn8xHwxvvDfO1hq6gRAe44FlK/Cweo+HHdv9gLluzce4H3cfGYwz+ckqcB+dmZlLgiYS4i4ZPn95lGGMY1mV6etzF4L9KiT/BuU8o8XicRcN/OmEUhUZN+DS+YvDH7qJAVQYce5wS58ZTNPzM48qopOy4mfEUg3+AEjfDsa8pkFUQP9HwDQeKqaz4QEP8xODfSInj4VQ5JebGTTT8uSfRppPOhYKbaa7W7BQKbIdTP6fExDiJhp/8Eh14aTKEetwUpsFat1GgaSwc+hEFgolGo+FHbk6AxKfb6dD2DhBI2Hw/SYMx+Bu8SWIaRIH3zEbDk+NzEVPF8ggdiyyvQCy5v6IFL2PwDwuvtTuzNpkC/TyMhrcW7FqDtk0cSVeMfAdtGto1SAvexuCP8uJC/bmU+KmBaPiWZrw9Gq3btJ+u2b8JrRr99gy2ZCAGfzkFtgTgyD4KpIw2EA0fraQQraneRRclVaMV1SWMZiAG/w5KLIQjJ1HgQQPR8JbyK2Fl9B66bM9oWKjMpxUDMfjtkynwDpwIFFHgTgPR8NYyP65AlPpBdN2gerRUcUsmrRmIwX+WAss8uH3Q4FU0vEDR5QX4rnN3UYNd5+I7Ci4vooBXMfipFBgPJyZS4NSAR9HwMg8349teHEgtBr6Ib2keRQHvYvCbKVBcAAeWUaCjR9HwYvsX438FbqI2NwXwPxbvp4CXMfhDkilwAxw4jQLneRQNLzfwhBz8l8Dj1OjxAP5TzglhCngbg9+ZAt1gX2iYqPs8i4aXW7kiAUDoKmp1VQhI2LCSAl7H4D9GgR/Bvl9SYFiGh9Hwcp2PQeAANVsXOKYzBbyPwS+kwEu6X8Juh4FoeIkxL1C7rylhIAb/TAqsDmgeMa8FDEXDxw8DMfi9NW8M7EmB/g5vi5p3/4B+O5q/qWmfgYz2Nd807+g34H76zSQo+hMFPoFtZ1GgBrCdw21e77lL0hEtfUnX3jTPQQz+8Xq3SV4XZGxXQEAQDW/CruXd0bruP9pFnxifrecNel/Y9aS+ew4VZTQt2OXGUrSt9K0uQZpnJwYfCyjQGXbtpMA+2FI+iEYlH1gMicUHIjRtUDls2MXYmhJg079RoBr2rF1Eg8YchNTBMXTovQu8jsEXJ1ecqXXxRjrk3IuGv28lHVhzDFQcs4YOrFyR4WIMvtylFHhX54L7YQmQczEaPueNCG0KH18ANQVPhWlTZFyO41rt2UGB6bBpte4ZAEfR8Iv305avn4S6J7+mLfsXO67Vrp/pTH2cSYEXIKApGn7vPKrreh3syO5KdfPedV6rbUN03qavpEAaBDREw1sMW0kEL4ddlwcpZT2C5qxWdSUa4zLeosBfIKAvGr5C5f9NDpwI+3aGqSBzz26Xa1V1D2NLCcCW8ygwCwI6o+Er8yk2bC+caB5GsfxKDbWqmUMB9f4T79QfmAEBvdHw15dQpulmOHNzE2VKjtVUq4oNytkVcl8xtnkQ0B0NP/rtYRQIN8Opa8IUaHp7tLZaFbxLgTsgp5hTPACuaZjdOUhLwZjR8Hldg4wlOBHOTRT8e7rm6axV7lONi81HMrbT4abywnF1RfyOorpxheWILTdmJ18IN1zIGC7O1Vur3HUU6Ac7RsuutLmuvHvhiuO3/ofjVxR2Xw8p66UX0tVCcl3Zlvs3J+iuVW6L5LgHdvyBAtXwjx5bw2xVYzbckd3IVoUn9YCPXMzY3ocdr1JgMPwk/Uu2Ivwk3FIZZmumwVe+0hbrdywFhsJXjtO3FE8ybXccDFM/hNil7egrOQO+8hmtrSmAewrK2Ioy+MqjFNA22XMJfKWDJMDDue/LF8gb9Za23ljF2H4PX5kgus3tXEe2YgL8ZJq23hij/orXtIdpKfkg3HUwIv9mZ1C9tt6oY2x74CezaO0A3LZOvkLLoNHaeuMzxpYaD08pwcVw2+JgXDypNOnqjYcY2wcwTTCw0MW7fxX3w09+rKs3shjb3+AjGcN0RhrKkjabMuLtYBQ2BChwBnzkbFraUgD3hZ6WL6ox5zLGpm0U9QEYJjisWw4d5sgXXJnzjKbeyKPAN/CRvrSUCx1ukL/uNWePpt5Ip8Dz8JGTaeUJ6HEJLZ0cby9UYMN8CuTAP0ojtLIKeqyipUgp/GOCpt7oToF28I9vaOlY6HF9HHzMXqipNx6gAAwThJXmQY88WquOsxexzp/gra2Gj3zh6dcN4H55mpEpww32xhb4yI88PqjMl+9zNWWnwd4ogY+MEcxRu+l0WhrzT9AbO+OtN+poZTh0+S0t1cE/Pj/aG20FYF8DXd6lpa/hHxcY7I1G+MgVtFIJXRpo6dSjveG/2dksjwfhF9BSFow62hvyDVRDoMsQWppxtDf8Nx5JSwXQJYPW/NcbR7+L0hL0+eftjaWS3vD/Z8pY6JIRB58pBs++dsFHsvzxfSML/nGjwd7Igo9c4Y/nlFP/Cc5FJzO2GfCRr82fb/jt7OsdxqZtrS18pM4f56J18I8Nmn6EDfHWG2P88T5lDPzjA00/wg4UaOf7d/SToMvp/n9Hf6HJOfMK+McX/pjf+AL+kaqpN9ZSYAT8o9ofc1/V8I/HNPUGkhlbg/9niTdBj01xMEt8QFdvbImze22lEfNz5j67g9BTV2/MY2xvwUdO9sP9lJNhlHpkm7aV1ZvhI139cK/t1/CR93T1xoOM7Qv4yHl+uA97HnzkEsamLeVxDnzkBi8PHObEw46FsK7euEU9rc2sjCYP9290ioPdLDMpADsmMbYu8JP95vf2DICPzNLWG2nqeeaGHWd+39dx8JFHtPXG7YytN/xklvk9gbPgI4XaRnCuYWzBsfGwe3adZ/tFHwbi7DXsXS6eQes/kU4cXP2/eTPVgxOhoh8tRTzbSzzBg1rl3mBsL8GOKynwM3fbonpcXRK/I6luXGEiRHrMDpveZ/5cD021ajuFeBN2BAYytp0eZfk1yDK5TOcgSDO5JLU6N56xvaEvs/ojuOPKtEa2qTHtSrQldzytac1PsTA+V3Otck/o2yzdh7F9DDfMXxdmTOF1t6E1NdYZoNpzl6wzQDfprFUumwKFsOUixnYSnLutpzSHu+dtrWQHz6A1/XltVma8PVpPrRqmOrvDltmM7SEo0pDfX1jC2DTmPFooWaqpVhVnaHzQXCIpoB0cCQzPopKs4QF8R2U+RebCHX0pkl/pSq26jzfCCdB2+OUwoWzTIirL/3arV3ycSaE0uOF1CmWuqnC5VlXLNW7XWUiB/nDgxiTakNQf/6Pg8iIKaMijlyi6vMDFWtUt0viydGyEsb0N20KpQdoS3BrCf2p+mCrCzXDqmjBV3NXsSq029WZsl+qM7ekLu0o70raOpcDi/VTUdDOcubmJivYvdqNWW9pT4LewqYvOtU5rF9GBRXknDKSyYc1w4txhVBY5IcdxrWthx+8o8BfYtIyxTcmALYmD6EiQdoR3wr6dYdqxcsUCh7UOStT1mMlZOtdhczHsOKeMRgQvh12XB2nTFDpUVuH8frClcIbWuaGdsCF7PE3pmw07svvSoPHZUHYaY1sDu86hwAlQF+pJc76uhLonv6ZRPUNQlLBa2xt68VPQZVA3iSZNmVoANQVTwzRskpZMtQl6T0+SoOyOIM0qOwYqjimjccFPNAyL8nrY9ncKpEPRpiS2peSZ1Nv3Tjt72t7bU5/pRE3GHITUwTHUQLnWpDz3c/y4GLbdToGJUBPIZ6uCdcMX4tsWDq8LUofIgcWQWLwuQh3Ua80PQEUdY0sJwbYnKbDMtefuqto8RMurraIOwS7vhtC20LtdgtTDRq1LoCDUxNiehX2lAxnb76EkMYvWUva1h7X2+1KorDGZMXWadANad8OkTtTEVq1Z5ZD7hrqn9j5jbOF2buyt4LYRaN2IbcqHkRkbKHFF126HEW1Et65XUOTRFSsp56jWVW6fW94HB16hwCNQ0CGTVoqno233FVMuMi4HQCqFntjfb0fzN0PbBxBoP/S25h397nmCUqlAzhsRyjmoNbODuwOdvBkOrKDA287Hpjo1IJaGEtWXn4HTqd1zAUD+SthprX0h9hBji2RrWGlh/+54eoQWNi5AbAs2UmTeu/gfgQPU7EAA/23vPAo5qTWSDqFN1H7TvaCYsa0OQexEWlizGxK716gOW4WuolZXhSAfQXOj1hMhtJMCz8GR31NgGqQSw4z2dA1kap6OPZu9G9+i+WPl9AC+pUIyRO6w1nAiZJ6jwItwZBkFfuhop8eUSkg1NKkOdwduojazA5CPvLtUa5qLI3v8FI4spauv2xoZbQXkurENJdfDQrcItYh0Q7TrS2jNrVobIXImBapCcGQoBYpHO8hW6OLSmOKw1i6TnZtEDZLObeWK3TBac6nWSht9pWv/1FkUeNX+TbniEVBRX9zaJdQ8tGbEILpu0Ai0Is/6aq5btc6GxFzZ2YNDV7k539OLUfZBzT5a+V4u2pD9Al32SjZal/s9WnOj1s4QSNhFge/DoSUUaIRIYpAtVeVATU4Vo92agLYtTaKLkpYKV4FoqDVYjtgGU2BKO0/2ELLebopFKlTV2sql2DSArhmwCbH02Bo2VyswgQIvwbGnKbABEuPYUvImqKpJtjcm8M5KumLlO5C41GStvSgwG45dRIF7bK7lfxDqDjHK+xCoWJVJxyLLK+D7WhcEKXA3HDufAlPWQiCJLb0Gdd1sL8ms3E6HFlVCwHStSyiQ0g6OPU+JpYit3J3NIDWMVg6ZP55GB077IwTM1zqAHm1cQqNbm09y2dJZbh255EJq73batH0vJMzXOiTs2TqSEyiQVWpnKn4M7HjG2UazhgNTqKz4QANkzNc6kRI3wAV3U+IvdgaFamFHrfVzktzM88qopOy8mZAyX2tHCoxMgAvGZlHgasQ01aVIr82M8hQUzZ8wikKjJsyHnPlaf9FEgb5wxZsUWN3ORpLt57Djc8GxkkD69AFNjKGpy/R0KDFf605KTIQr/kGJO2zcgv2+Wyujt8KWsTffOpetOXnurTePhSrztX5JgeQKuOLKTAq8aePPazDs6C7485JjayDnp1pnhinwG7ikFwWKcxBDqr6/S6nme8MvtXajxIVwyQRKLEEMU/V9Bj9lvjf8UutvKPFLuGQwJfqoP9dtdusG9wbzveGTWg8HKdAItyRcQoHgCLStUN8zf6H53vBJrROo/R2sfA+H/EM/V99ZYa753vBHrQnXUuJlN4OGJHoXqL5/KnEr86fcfG/4o9Y/UqJTAK5JuIJu5LQUsaV0qDsseG9tqDfM1/oTSiyDi5ZT4jLleZcl7kyw1pnvDX/UemWY8kAdTz9UggtVL8kdcmcWapn53vBHrWmUuDYAFyV0osQc1Vni5BpXZiirzfeGL2pN+DElUuGqfpRYWYC2lAddeLKrFczlm+kN87VeQ5EGuKqBIsdKD9/t39nIEtznMdMb5msdQIlRcNnJlDhN+c7jPqj5q+Akx0xvmK/1YJASH8FlH1EkV/W3T0o9VNSnMFql+d7wRa2PUSIzDy6ryaTET9CmRh13y0fBfG/4odacGZQ4Ca4bQIlInvJulg2Q20ALaeZ7wxe13kmRd+C6pRSZo7zTqbgSUpXFgj1HZnrDfK0F91NidTZcV7qLEqtz0JY97u/AOhHme8MPtb5IkROhwaUUmYq2LIwwWqNwd16jcK+iXMPszmzN7AbIma814WSKTIMGHSiycrT67tmN6xHb+o0uD9NfmdbINjWmXQkh87X2p8h70OIlihxnY2d1iWRXr2SPs9z8dWHGFF53GyTM1xq4mCIboMU7FHm61Mau++INaNuOYlc/Pm/rGaRIsKekO8zXegFFZqyFFu22kM6365dn0dKX9Whd/ZeC3Ai59XsyKZa5Zz0EDNc6XvpNVJM5FLmkna3tECl/zYG1IR+msBU7oC4wPItKsoYHIGCy1msoUwlN8iIUuc9mJldV7VBEq6mtEuRUyW1aRGX5myBgrtbAeIr8Ctr8hCKXjLab5Zd8aMlhfNvhJQOSJfl2cjcm0Yak/hAwVutblNkJbXIpk+YkA7Tkq9rzm/8j+7D5/NqvSmS5mHKh1CBtCW4NQcBMrQlrKHJ/AfT5FUWS2nuSHTwJqko70raOpRAwUutOykyFRkspkyrIHDeQw712ER1YtBYCBmotPYUiKRXQKGMeRZoWoE3Z403k9ycOoiODEiHnYa2vU+ZSaPUoZV5A2yrK6FBZBRSdo+vfabjWK6soEjkMrXoUUSSzAW0rd/p3uNxHf3/N1noLZX4CzeZQ5jK9n/3vr/XT577RWucnU+ZJaLYpTJm/6HxmGNPOX88LJms9iTLbod0qytxVihhCW+2eNfQLOT9nkJOcM5ir9QwKTYZ2hyPuPUz3T6INRZ84O5+0UPJM6u17/+MMau/tqc90ogXB+aSZWsc+TJmX4IGLKNOUh5jy8qksP8/N9xpksG74QnzbwuF1QVLxvYapWn9LoWZ44JeZlHlTyzvRHQFX06OqavMQLa+2SnGxmaFa12dR5ll4Yi6F9vplliIxi9ZS9rWHtfb7Uqg0R2Gm1rkU+hyeOBihzCnZkJh/r3QG69757n5/3jYCrRuxja1YBTm9tZ5Loe8F4I0DFEqFTMNFAxnTwIsaXJ3bZPF0tO2+YirMbRqotd08CjXDIyMGUmZgBwiVp93FNt2VlujuvDc7yWd65fPe3tZaS6E6eOYWCv0+pHRXJEhLwc6zK2FfeoQWNi5AbAs20v6dGO21VkYo9Ag8U5NCoS+gorxwXF0Rv6OoblxhORw5kRbWCO8QrbE/kqu71rGDKLQfHkqlUMpCqCrvXrji+K3/4fgVhd3Xw7HEsPt3D+V3cDXW+jaFMp+Eh4ZsodBvEmBYGqNNqYRUQ5Nk6tGAT6dQ6Cp46gNK3QrDGhlthbMcTrIRpo3tRaHiPHiq9FoKFX8KoxqoY0cKK2HYBEpthccKKdW5ACbNZpTiEVBRX8xos2HW4AiFVg6BxwJ9KHUTTOrlfCfbPquOh1HZD1PqUXjuhkwKJX8f5iQGXdjlWCXf8+mRjym1JgPee4FSnWbCmGr1k3zZ+WM1DCqk2N0woLyKUvfCmHFsKXmTK7ujl8Gc54so1RFG3EqxDTDlfbb0oDs759+HMaHTKFVcDyMy1lCq+EkYksSWXoO6boySBWMmUWwfDHkgSKlThsCIckbZBHU1jFYOQ84IUmpeO5hyEcXuDcCEXLZ0Fuw4S7qeW7/6IoqdC2MSkyh2OUwo1JepVwgjSntRbC4Meo1iyX+EASv0ZXFugBEvUKxoPQwK1FFs5Jnw3lSXMnw3y/Kd9XuUcitg1MEpFOucDc+l6sv+ToUBD4TJuBmPeIpyXQM+eNz7vlthhlvhvZqRFCueBcMKBlHubR/0xmDY0d0XvZH9GeXuhHENAykWrIbHUvX93kiFfg7WRFwcgnn7KNf0Mrw1Vd/3jaf8fB7K8Hz4QMF7lHu6xvQz7GbYcbsPnmG7UcFH8IVvwpQrGwIvFeo73yiEt5rDlPtVCP5wIRVsL4CHcvWdi+bCU4ObKDdsIXwi1IcKrg4YfddWAjtKTL9rSx9JBRvgG2dWUcHx8FARW0qHusOm39HvnkcFAwLwj/OpIHma0dmeJe7sdqmDh3qMp4Le5fCTX1PBS/DOMrZ0COoOmZ0JLNhOBcG98JUhZ1HBYJOzxMk1rsyLVsMzoXup4g34zLQw5R6DZ8qDLjzF1hq9gxC6mip6FcBvXqdcGbzTy4X7KVkm7y4FXqCK1QfhO4F7KBYOGb3zuA9q/mryzmNgFZX8HD50zkMUG2L0rnRKPVTUpxi8Kx1YTiWXwpduCPuxN9Co4x79KHgjcCmVPFsAf9rhy95Ic3huuMHgbpbA41Sy63n41dVme0O+06m4ElKVxYKdTpqEVlFJ8l74VvYgH/YG9ri/7+tEeCHjaqq5ED72/Egf9sbCCKM1CvcENgp2SGrSrifVvBmAn90dMdsb8t2zG9cjtvUbBbtnNVmbTzVl2fC34wz3hnxndYntvcSZHaDf7oupZsth+N0ew70h33VfvAFt21FMmvq2UT+KasKT4XsF2/3XG+VZtPRlPVpX/6UgI0OXG66gotcQB86ZZ743pNk6KX/NgbUhH6awFTugXfMMKuqHuJC+y3xviDO5qmqHIlpNbZUgk0ubbhFN2aTm9TffGwpZfsmHlhzGtx1eMiBZkOWnTUI/qvosG3FivvneUMwALfmq9vzm/8h5bD6/9qsSQQaoTj3+RAHBSd7R3jCQHaxV3ntUNXIWjvaGnPnMcZseOJWqmgbjaG84kz2ejo3Phl7TB1JV8hk42htOVZTRobIKaNXuFarbgKO94Vz5IDoyqBxa1X+P6i7E0d5ww9pFdOD9tdDqxiKq64ejveGO0o60bUw76JTRL0h1qwJHe8Mtoa1B2hLsF4JOz79EGzqGcLQ33NM/iTYUfQKtfl5EG8YU4GhvuCkvn8ry86DTdXtox7YCHO0NdwWGZ1FJ1o4AdBo8inbsL8DR3nDd+j2ZFMvcsx46/Xt79wAkV7bHcfw36YmN/xqDuGLbtnq9UWemsnFGsdmzsTXozHuxbdtWr20b0fO83OCevnfSe/r3OSj7W/UvnvP8UI+omN0KbMMOw6Y75YE4pw+DrTI8JkoqNgLbsMlndSrLfVWu8xlslf+DCFGyeyDYhn2mPDNR7mniM+lhrzVVRc10F9iGvT6LecwphpyPxfwdNmu1yyNqmj8PtmG/KVEvXYmWVKKvvBQ1BbYrP0QUrXaDbaRZIKFRC7PsuiXLwqjQtUgLa5uLqrMOsA195V9cRVRFAmxDX8dyiari68A29BXWVpRFzAXb0FbLrI+IsryzwDZ05WqTIurmTAXb0FTwuUrigzfXgm3oyXFxpPhicnuwDT2V3yk+eckNtqEjR61x4pPKBwG2oWMZZR4T3+Q9BrahIdf4XOKj633ANvTT8plV4qu27cE2tDN2+VLxVfFIB9iGZhxvTS4uPouuBbANvXT4dZ5YoOqnYBsK3EmfhsMvObrMjxArjAgC2zAt/Zkr9URk6RMz1sLPNM5SSSzRrSNMYxvtdz0i/5av4tVw+I0a1a44xRoju4JtmBZfX1Lp9uTFIPiBvrFtI8QiziJBYBtm7Tsvd9rYKSQID1X7qPn1xDIpITCLbeT/tZ4Yq7fjkx54SLyHf48TCzUZDbZhVvU35R48VwoPQ1pzDMjSO59YKe7dYLANk1omF5f72bQo1os0M7rQ6nZisZxTYRbbmDtTHojzzR8/6gHbeeOX5xLLeT7OD7Zh0qeTxYTiy5IzfQrbhP2w6LrYYeQAmMQ2nn/mETEtz/nL5b2w2JRfXn3/ktgjYb0LbMOkzctEVf3dr0Z9+zwsMHBYps7ftRP7bMsAk9hGuhFO8U3lDdljxg/3Qo3jwKzxu4oOySe26jbKDbZhUsdiYpGvP2+y+p1ptTK0xAMpd/TUD+v3PnE9TtJA0RdgEtsIyyHWi5uZ68jvnb7/uMInUR+d2lz2lm8y3L5nnSoTdfq1y/2/vJDjp5mVJe30C4FJbMMV+YjoL6FzX5jENhZclwDw/lGYxDbKHXKK/obUgklsw/FJiuhv468umMQ2vnld9Fc5OQkmsY2BH0eI/tqGwSy20WWe6O/IczCLbXi/cIr26l6DWWzDcXi7aG/DVw6YxTamlhTtXe8YDLPYRquhCaK7n6IUymAbLSqJ7uoOcsA0tpG+lGjOWfEUzGMbwdOiRW+KX7KwjWFHRG95S2+BArbRaJdHtLZsWiOoYBvXSojOPDsmgZTaWHtBdDYncjRIqY3gGVVEX5Xb/hwMUmvjxjbR18h3O4AU2wjP6hFd5Tk7BqTcxkf9RFH0UvFr0Yd65gcpt3Ggrajq1KFVmSe7iZ/q9mTIQJB6G+4KS0XRxGO4rVV8p0vid1IOhbQC+dJG2bqiKOHjIPxb/mPfzxE/0isxoxvkUxvtE/OJole+QWrDzuyvLH4gYf+7XUG+tlFmkyhK+cGBO9WIXzlRHqpmyRfD4TO2se+8KHKeTMLd7Dtcqr48FPU7fVITFmAb+dt0E0WfF8S9hY1fnVvS1PVFPzSGNdhGizdFUdyDvWqTPuTpV+pJGoieHRPihXXYhlMUNRmLB+b+tlDi37rZmMUrL139xgFz2IZN8hSCWcG/lcmS/XqCWCpi5IX1IS/Ab7AN55c9oMjduOdryytWyic+yjfn9UXPhIS54VfYxrLW8JXrm1+mfbxo95vFxKR613OsfrXhW31c8D9s45HCLlhnYIHN8Qc/yHqy6P66E2duNJoaeVfN2zn7wpelP9j6UWjjvvBfbKNiY9gpXbp9jW8Zc/T2vS9de/xVsI12sTBAbKP4Uy1hgNjGT6EwQGzj6wn5YYDYxu4CMEBsY9UeGCC2UXz5ChggtvHYCRggttHt3fwwQGyj6BYYILaxaRAMENvwJIbDALGNnGVhgNjGxsxuGCC28UdNGCC2MecXGCC24enfFwaIbbx8AwaIbUQvDIYBYhvN18IAsY0Sb8EAsY3Ku1rBALGNIxlggNhG3mkOGCC20T09DBDbGHIKBohtJPzZCgaIbZQ8Cgo4XeX+tm91gAJPB7kf5xdeUCDKHyH31qwLKEC9LPcS8d5AUKAqLPewvw8ocO3zyN00/cQBCmSLxJjzjXKgwObNI0auLwAFvFMJcodHIl0AUWxl+T85wnAb0bHUY6VYR/wLUVJynPzbI51bIhUiIiIiopssH22KNY1klAAAAABJRU5ErkJggg==;fontColor=#4277BB;spacingTop=3;" parent="-KOEicAbmXbd-GZ6eH1_-1" vertex="1">
          <mxGeometry x="720" y="190" width="47.84" height="47.75" as="geometry" />
        </mxCell>
        <mxCell id="BGMvoTLmsf2Ejd6T7hRA-29" value="Docker&lt;br&gt;Containers" style="shape=image;html=1;verticalAlign=top;verticalLabelPosition=bottom;labelBackgroundColor=#ffffff;imageAspect=0;aspect=fixed;image=https://cdn1.iconfinder.com/data/icons/social-media-2106/24/social_media_social_media_logo_docker-128.png;spacingTop=3;fontColor=#4277BB;" parent="-KOEicAbmXbd-GZ6eH1_-1" vertex="1">
          <mxGeometry x="615" y="560" width="50" height="50" as="geometry" />
        </mxCell>
        <mxCell id="BGMvoTLmsf2Ejd6T7hRA-41" value="Kubernetes&lt;br&gt;Orchestrator" style="sketch=0;aspect=fixed;html=1;points=[];align=center;image;fontSize=12;image=img/lib/mscae/Kubernetes.svg;spacingTop=3;fontColor=#4277BB;" parent="-KOEicAbmXbd-GZ6eH1_-1" vertex="1">
          <mxGeometry x="520" y="560" width="52.09" height="50" as="geometry" />
        </mxCell>
        <mxCell id="BGMvoTLmsf2Ejd6T7hRA-52" value="&lt;font color=&quot;#4277bb&quot;&gt;Centralized&lt;br&gt;Logs&lt;/font&gt;" style="sketch=0;aspect=fixed;html=1;points=[];align=center;image;fontSize=12;image=img/lib/mscae/LogDiagnostics.svg;spacingTop=3;" parent="-KOEicAbmXbd-GZ6eH1_-1" vertex="1">
          <mxGeometry x="430" y="560" width="45" height="50" as="geometry" />
        </mxCell>
        <mxCell id="BGMvoTLmsf2Ejd6T7hRA-54" value="Registry&lt;br&gt;Server" style="aspect=fixed;perimeter=ellipsePerimeter;html=1;align=center;shadow=0;dashed=0;fontColor=#4277BB;labelBackgroundColor=#ffffff;fontSize=12;spacingTop=3;image;image=img/lib/ibm/data/device_registry.svg;" parent="-KOEicAbmXbd-GZ6eH1_-1" vertex="1">
          <mxGeometry x="720" y="430" width="50" height="50" as="geometry" />
        </mxCell>
      </root>
    </mxGraphModel>
  </diagram>
  <diagram id="EJrMHPXA4YGezbshBckR" name="Classes - RI">
    <mxGraphModel dx="946" dy="608" grid="1" gridSize="10" guides="1" tooltips="1" connect="1" arrows="1" fold="1" page="1" pageScale="1" pageWidth="850" pageHeight="1100" math="0" shadow="0">
      <root>
        <mxCell id="r9ZrSJ4VWCq3yXywwIYW-0" />
        <mxCell id="r9ZrSJ4VWCq3yXywwIYW-1" parent="r9ZrSJ4VWCq3yXywwIYW-0" />
        <object label="Boa SaÃºde" Model="Disease" id="NFE5jcaqBEwZ20pzX-tq-0">
          <mxCell style="swimlane;fontColor=#4277BB;strokeWidth=1;gradientColor=none;" parent="r9ZrSJ4VWCq3yXywwIYW-1" vertex="1">
            <mxGeometry x="10" y="20" width="1500" height="1090" as="geometry" />
          </mxCell>
        </object>
        <object label="PreexistingDiseases" id="NFE5jcaqBEwZ20pzX-tq-1">
          <mxCell style="swimlane;fontStyle=1;align=center;verticalAlign=top;childLayout=stackLayout;horizontal=1;startSize=26;horizontalStack=0;resizeParent=1;resizeParentMax=0;resizeLast=0;collapsible=1;marginBottom=0;fontColor=#4277BB;strokeWidth=1;gradientColor=none;" parent="NFE5jcaqBEwZ20pzX-tq-0" vertex="1">
            <mxGeometry x="30" y="40" width="240" height="190" as="geometry" />
          </mxCell>
        </object>
        <mxCell id="NFE5jcaqBEwZ20pzX-tq-2" value="- diseaseModel: Disease" style="text;strokeColor=none;fillColor=none;align=left;verticalAlign=top;spacingLeft=4;spacingRight=4;overflow=hidden;rotatable=0;points=[[0,0.5],[1,0.5]];portConstraint=eastwest;fontColor=#4277BB;" parent="NFE5jcaqBEwZ20pzX-tq-1" vertex="1">
          <mxGeometry y="26" width="240" height="26" as="geometry" />
        </mxCell>
        <mxCell id="NFE5jcaqBEwZ20pzX-tq-3" value="" style="line;strokeWidth=1;fillColor=none;align=left;verticalAlign=middle;spacingTop=-1;spacingLeft=3;spacingRight=3;rotatable=0;labelPosition=right;points=[];portConstraint=eastwest;fontColor=#4277BB;" parent="NFE5jcaqBEwZ20pzX-tq-1" vertex="1">
          <mxGeometry y="52" width="240" height="8" as="geometry" />
        </mxCell>
        <mxCell id="NFE5jcaqBEwZ20pzX-tq-4" value="+ create(Disease): Void" style="text;strokeColor=none;fillColor=none;align=left;verticalAlign=top;spacingLeft=4;spacingRight=4;overflow=hidden;rotatable=0;points=[[0,0.5],[1,0.5]];portConstraint=eastwest;fontColor=#4277BB;" parent="NFE5jcaqBEwZ20pzX-tq-1" vertex="1">
          <mxGeometry y="60" width="240" height="26" as="geometry" />
        </mxCell>
        <mxCell id="NFE5jcaqBEwZ20pzX-tq-5" value="+ readList(List&lt;Filter&gt;): List&lt;Disease&gt;" style="text;strokeColor=none;fillColor=none;align=left;verticalAlign=top;spacingLeft=4;spacingRight=4;overflow=hidden;rotatable=0;points=[[0,0.5],[1,0.5]];portConstraint=eastwest;fontColor=#4277BB;" parent="NFE5jcaqBEwZ20pzX-tq-1" vertex="1">
          <mxGeometry y="86" width="240" height="26" as="geometry" />
        </mxCell>
        <mxCell id="NFE5jcaqBEwZ20pzX-tq-8" value="+ read(String): Disease" style="text;strokeColor=none;fillColor=none;align=left;verticalAlign=top;spacingLeft=4;spacingRight=4;overflow=hidden;rotatable=0;points=[[0,0.5],[1,0.5]];portConstraint=eastwest;fontColor=#4277BB;" parent="NFE5jcaqBEwZ20pzX-tq-1" vertex="1">
          <mxGeometry y="112" width="240" height="26" as="geometry" />
        </mxCell>
        <mxCell id="NFE5jcaqBEwZ20pzX-tq-6" value="+ update(Disease): Integer" style="text;strokeColor=none;fillColor=none;align=left;verticalAlign=top;spacingLeft=4;spacingRight=4;overflow=hidden;rotatable=0;points=[[0,0.5],[1,0.5]];portConstraint=eastwest;fontColor=#4277BB;" parent="NFE5jcaqBEwZ20pzX-tq-1" vertex="1">
          <mxGeometry y="138" width="240" height="26" as="geometry" />
        </mxCell>
        <mxCell id="NFE5jcaqBEwZ20pzX-tq-7" value="+ delete(Integer): Void" style="text;strokeColor=none;fillColor=none;align=left;verticalAlign=top;spacingLeft=4;spacingRight=4;overflow=hidden;rotatable=0;points=[[0,0.5],[1,0.5]];portConstraint=eastwest;fontColor=#4277BB;" parent="NFE5jcaqBEwZ20pzX-tq-1" vertex="1">
          <mxGeometry y="164" width="240" height="26" as="geometry" />
        </mxCell>
        <mxCell id="NFE5jcaqBEwZ20pzX-tq-19" value="Shortages" style="swimlane;fontStyle=1;align=center;verticalAlign=top;childLayout=stackLayout;horizontal=1;startSize=26;horizontalStack=0;resizeParent=1;resizeParentMax=0;resizeLast=0;collapsible=1;marginBottom=0;fontColor=#4277BB;strokeWidth=1;gradientColor=none;" parent="NFE5jcaqBEwZ20pzX-tq-0" vertex="1">
          <mxGeometry x="390" y="40" width="240" height="242" as="geometry" />
        </mxCell>
        <mxCell id="NFE5jcaqBEwZ20pzX-tq-27" value="- shortageModel:Â Shortage" style="text;strokeColor=none;fillColor=none;align=left;verticalAlign=top;spacingLeft=4;spacingRight=4;overflow=hidden;rotatable=0;points=[[0,0.5],[1,0.5]];portConstraint=eastwest;fontColor=#4277BB;" parent="NFE5jcaqBEwZ20pzX-tq-19" vertex="1">
          <mxGeometry y="26" width="240" height="26" as="geometry" />
        </mxCell>
        <mxCell id="NFE5jcaqBEwZ20pzX-tq-20" value="- diseaseListModel: List&lt;Disease&gt;" style="text;strokeColor=none;fillColor=none;align=left;verticalAlign=top;spacingLeft=4;spacingRight=4;overflow=hidden;rotatable=0;points=[[0,0.5],[1,0.5]];portConstraint=eastwest;fontColor=#4277BB;" parent="NFE5jcaqBEwZ20pzX-tq-19" vertex="1">
          <mxGeometry y="52" width="240" height="26" as="geometry" />
        </mxCell>
        <mxCell id="_J8TebosFzN3dDydJsr--12" value="- ageGroupModel: AgeGroup" style="text;strokeColor=none;fillColor=none;align=left;verticalAlign=top;spacingLeft=4;spacingRight=4;overflow=hidden;rotatable=0;points=[[0,0.5],[1,0.5]];portConstraint=eastwest;fontColor=#4277BB;" parent="NFE5jcaqBEwZ20pzX-tq-19" vertex="1">
          <mxGeometry y="78" width="240" height="26" as="geometry" />
        </mxCell>
        <mxCell id="NFE5jcaqBEwZ20pzX-tq-21" value="" style="line;strokeWidth=1;fillColor=none;align=left;verticalAlign=middle;spacingTop=-1;spacingLeft=3;spacingRight=3;rotatable=0;labelPosition=right;points=[];portConstraint=eastwest;fontColor=#4277BB;" parent="NFE5jcaqBEwZ20pzX-tq-19" vertex="1">
          <mxGeometry y="104" width="240" height="8" as="geometry" />
        </mxCell>
        <mxCell id="NFE5jcaqBEwZ20pzX-tq-22" value="+ create(Shortage): Void" style="text;strokeColor=none;fillColor=none;align=left;verticalAlign=top;spacingLeft=4;spacingRight=4;overflow=hidden;rotatable=0;points=[[0,0.5],[1,0.5]];portConstraint=eastwest;fontColor=#4277BB;" parent="NFE5jcaqBEwZ20pzX-tq-19" vertex="1">
          <mxGeometry y="112" width="240" height="26" as="geometry" />
        </mxCell>
        <mxCell id="NFE5jcaqBEwZ20pzX-tq-23" value="+ readList(List&lt;Filter&gt;): List&lt;Shortage&gt;" style="text;strokeColor=none;fillColor=none;align=left;verticalAlign=top;spacingLeft=4;spacingRight=4;overflow=hidden;rotatable=0;points=[[0,0.5],[1,0.5]];portConstraint=eastwest;fontColor=#4277BB;" parent="NFE5jcaqBEwZ20pzX-tq-19" vertex="1">
          <mxGeometry y="138" width="240" height="26" as="geometry" />
        </mxCell>
        <mxCell id="NFE5jcaqBEwZ20pzX-tq-24" value="+ read(String):Â Shortage" style="text;strokeColor=none;fillColor=none;align=left;verticalAlign=top;spacingLeft=4;spacingRight=4;overflow=hidden;rotatable=0;points=[[0,0.5],[1,0.5]];portConstraint=eastwest;fontColor=#4277BB;" parent="NFE5jcaqBEwZ20pzX-tq-19" vertex="1">
          <mxGeometry y="164" width="240" height="26" as="geometry" />
        </mxCell>
        <mxCell id="NFE5jcaqBEwZ20pzX-tq-25" value="+ update(Shortage): Integer" style="text;strokeColor=none;fillColor=none;align=left;verticalAlign=top;spacingLeft=4;spacingRight=4;overflow=hidden;rotatable=0;points=[[0,0.5],[1,0.5]];portConstraint=eastwest;fontColor=#4277BB;" parent="NFE5jcaqBEwZ20pzX-tq-19" vertex="1">
          <mxGeometry y="190" width="240" height="26" as="geometry" />
        </mxCell>
        <mxCell id="NFE5jcaqBEwZ20pzX-tq-26" value="+ delete(Integer): Void" style="text;strokeColor=none;fillColor=none;align=left;verticalAlign=top;spacingLeft=4;spacingRight=4;overflow=hidden;rotatable=0;points=[[0,0.5],[1,0.5]];portConstraint=eastwest;fontColor=#4277BB;" parent="NFE5jcaqBEwZ20pzX-tq-19" vertex="1">
          <mxGeometry y="216" width="240" height="26" as="geometry" />
        </mxCell>
        <mxCell id="NFE5jcaqBEwZ20pzX-tq-28" value="Relation" style="endArrow=open;html=1;endSize=12;startArrow=diamondThin;startSize=14;startFill=0;edgeStyle=orthogonalEdgeStyle;rounded=0;dashed=1;fontColor=#4277BB;exitX=1;exitY=0.5;exitDx=0;exitDy=0;entryX=0;entryY=0.5;entryDx=0;entryDy=0;" parent="NFE5jcaqBEwZ20pzX-tq-0" source="NFE5jcaqBEwZ20pzX-tq-2" target="NFE5jcaqBEwZ20pzX-tq-20" edge="1">
          <mxGeometry relative="1" as="geometry">
            <mxPoint x="300" y="310" as="sourcePoint" />
            <mxPoint x="460" y="310" as="targetPoint" />
          </mxGeometry>
        </mxCell>
        <mxCell id="NFE5jcaqBEwZ20pzX-tq-29" value="0..n" style="edgeLabel;resizable=0;html=1;align=left;verticalAlign=top;fontColor=#4277BB;strokeWidth=1;gradientColor=none;" parent="NFE5jcaqBEwZ20pzX-tq-28" connectable="0" vertex="1">
          <mxGeometry x="-1" relative="1" as="geometry" />
        </mxCell>
        <mxCell id="NFE5jcaqBEwZ20pzX-tq-30" value="0..n" style="edgeLabel;resizable=0;html=1;align=right;verticalAlign=top;fontColor=#4277BB;strokeWidth=1;gradientColor=none;" parent="NFE5jcaqBEwZ20pzX-tq-28" connectable="0" vertex="1">
          <mxGeometry x="1" relative="1" as="geometry" />
        </mxCell>
        <mxCell id="NFE5jcaqBEwZ20pzX-tq-31" value="ServicesCoverages" style="swimlane;fontStyle=1;align=center;verticalAlign=top;childLayout=stackLayout;horizontal=1;startSize=26;horizontalStack=0;resizeParent=1;resizeParentMax=0;resizeLast=0;collapsible=1;marginBottom=0;fontColor=#4277BB;strokeWidth=1;gradientColor=none;" parent="NFE5jcaqBEwZ20pzX-tq-0" vertex="1">
          <mxGeometry x="750" y="40" width="240" height="216" as="geometry" />
        </mxCell>
        <mxCell id="NFE5jcaqBEwZ20pzX-tq-33" value="- coverageModel: Coverage" style="text;strokeColor=none;fillColor=none;align=left;verticalAlign=top;spacingLeft=4;spacingRight=4;overflow=hidden;rotatable=0;points=[[0,0.5],[1,0.5]];portConstraint=eastwest;fontColor=#4277BB;" parent="NFE5jcaqBEwZ20pzX-tq-31" vertex="1">
          <mxGeometry y="26" width="240" height="26" as="geometry" />
        </mxCell>
        <mxCell id="NFE5jcaqBEwZ20pzX-tq-32" value="- shortageListModel: List&lt;Shortage&gt;" style="text;strokeColor=none;fillColor=none;align=left;verticalAlign=top;spacingLeft=4;spacingRight=4;overflow=hidden;rotatable=0;points=[[0,0.5],[1,0.5]];portConstraint=eastwest;fontColor=#4277BB;" parent="NFE5jcaqBEwZ20pzX-tq-31" vertex="1">
          <mxGeometry y="52" width="240" height="26" as="geometry" />
        </mxCell>
        <mxCell id="NFE5jcaqBEwZ20pzX-tq-34" value="" style="line;strokeWidth=1;fillColor=none;align=left;verticalAlign=middle;spacingTop=-1;spacingLeft=3;spacingRight=3;rotatable=0;labelPosition=right;points=[];portConstraint=eastwest;fontColor=#4277BB;" parent="NFE5jcaqBEwZ20pzX-tq-31" vertex="1">
          <mxGeometry y="78" width="240" height="8" as="geometry" />
        </mxCell>
        <mxCell id="NFE5jcaqBEwZ20pzX-tq-35" value="+ create(Coverage): Void" style="text;strokeColor=none;fillColor=none;align=left;verticalAlign=top;spacingLeft=4;spacingRight=4;overflow=hidden;rotatable=0;points=[[0,0.5],[1,0.5]];portConstraint=eastwest;fontColor=#4277BB;" parent="NFE5jcaqBEwZ20pzX-tq-31" vertex="1">
          <mxGeometry y="86" width="240" height="26" as="geometry" />
        </mxCell>
        <mxCell id="NFE5jcaqBEwZ20pzX-tq-36" value="+ readList(List&lt;Filter&gt;): List&lt;Coverage&gt;" style="text;strokeColor=none;fillColor=none;align=left;verticalAlign=top;spacingLeft=4;spacingRight=4;overflow=hidden;rotatable=0;points=[[0,0.5],[1,0.5]];portConstraint=eastwest;fontColor=#4277BB;" parent="NFE5jcaqBEwZ20pzX-tq-31" vertex="1">
          <mxGeometry y="112" width="240" height="26" as="geometry" />
        </mxCell>
        <mxCell id="NFE5jcaqBEwZ20pzX-tq-37" value="+ read(String):Â Coverage" style="text;strokeColor=none;fillColor=none;align=left;verticalAlign=top;spacingLeft=4;spacingRight=4;overflow=hidden;rotatable=0;points=[[0,0.5],[1,0.5]];portConstraint=eastwest;fontColor=#4277BB;" parent="NFE5jcaqBEwZ20pzX-tq-31" vertex="1">
          <mxGeometry y="138" width="240" height="26" as="geometry" />
        </mxCell>
        <mxCell id="NFE5jcaqBEwZ20pzX-tq-38" value="+ update(Coverage): Integer" style="text;strokeColor=none;fillColor=none;align=left;verticalAlign=top;spacingLeft=4;spacingRight=4;overflow=hidden;rotatable=0;points=[[0,0.5],[1,0.5]];portConstraint=eastwest;fontColor=#4277BB;" parent="NFE5jcaqBEwZ20pzX-tq-31" vertex="1">
          <mxGeometry y="164" width="240" height="26" as="geometry" />
        </mxCell>
        <mxCell id="NFE5jcaqBEwZ20pzX-tq-39" value="+ delete(Integer): Void" style="text;strokeColor=none;fillColor=none;align=left;verticalAlign=top;spacingLeft=4;spacingRight=4;overflow=hidden;rotatable=0;points=[[0,0.5],[1,0.5]];portConstraint=eastwest;fontColor=#4277BB;" parent="NFE5jcaqBEwZ20pzX-tq-31" vertex="1">
          <mxGeometry y="190" width="240" height="26" as="geometry" />
        </mxCell>
        <mxCell id="NFE5jcaqBEwZ20pzX-tq-40" value="Relation" style="endArrow=open;html=1;endSize=12;startArrow=diamondThin;startSize=14;startFill=0;edgeStyle=orthogonalEdgeStyle;rounded=0;dashed=1;fontColor=#4277BB;exitX=1;exitY=0.5;exitDx=0;exitDy=0;entryX=0;entryY=0.5;entryDx=0;entryDy=0;" parent="NFE5jcaqBEwZ20pzX-tq-0" source="NFE5jcaqBEwZ20pzX-tq-27" target="NFE5jcaqBEwZ20pzX-tq-32" edge="1">
          <mxGeometry relative="1" as="geometry">
            <mxPoint x="320" y="410" as="sourcePoint" />
            <mxPoint x="480" y="410" as="targetPoint" />
          </mxGeometry>
        </mxCell>
        <mxCell id="NFE5jcaqBEwZ20pzX-tq-41" value="0..n" style="edgeLabel;resizable=0;html=1;align=left;verticalAlign=top;fontColor=#4277BB;strokeWidth=1;gradientColor=none;" parent="NFE5jcaqBEwZ20pzX-tq-40" connectable="0" vertex="1">
          <mxGeometry x="-1" relative="1" as="geometry" />
        </mxCell>
        <mxCell id="NFE5jcaqBEwZ20pzX-tq-42" value="0..n" style="edgeLabel;resizable=0;html=1;align=right;verticalAlign=top;fontColor=#4277BB;strokeWidth=1;gradientColor=none;" parent="NFE5jcaqBEwZ20pzX-tq-40" connectable="0" vertex="1">
          <mxGeometry x="1" relative="1" as="geometry" />
        </mxCell>
        <mxCell id="NFE5jcaqBEwZ20pzX-tq-52" value="Relation" style="endArrow=open;html=1;endSize=12;startArrow=diamondThin;startSize=14;startFill=0;edgeStyle=orthogonalEdgeStyle;rounded=0;dashed=1;fontColor=#4277BB;exitX=1;exitY=0.5;exitDx=0;exitDy=0;entryX=0;entryY=0.5;entryDx=0;entryDy=0;" parent="NFE5jcaqBEwZ20pzX-tq-0" source="NFE5jcaqBEwZ20pzX-tq-33" target="NFE5jcaqBEwZ20pzX-tq-44" edge="1">
          <mxGeometry relative="1" as="geometry">
            <mxPoint x="280.28999999999996" y="412" as="sourcePoint" />
            <mxPoint x="360.28999999999996" y="420" as="targetPoint" />
            <Array as="points">
              <mxPoint x="1030" y="79" />
              <mxPoint x="1030" y="330" />
              <mxPoint x="710" y="330" />
              <mxPoint x="710" y="427" />
            </Array>
          </mxGeometry>
        </mxCell>
        <mxCell id="NFE5jcaqBEwZ20pzX-tq-53" value="0..n" style="edgeLabel;resizable=0;html=1;align=left;verticalAlign=top;fontColor=#4277BB;strokeWidth=1;gradientColor=none;" parent="NFE5jcaqBEwZ20pzX-tq-52" connectable="0" vertex="1">
          <mxGeometry x="-1" relative="1" as="geometry" />
        </mxCell>
        <mxCell id="NFE5jcaqBEwZ20pzX-tq-54" value="0..n" style="edgeLabel;resizable=0;html=1;align=right;verticalAlign=top;fontColor=#4277BB;strokeWidth=1;gradientColor=none;" parent="NFE5jcaqBEwZ20pzX-tq-52" connectable="0" vertex="1">
          <mxGeometry x="1" relative="1" as="geometry" />
        </mxCell>
        <mxCell id="NFE5jcaqBEwZ20pzX-tq-56" value="PeopleCategories" style="swimlane;fontStyle=1;align=center;verticalAlign=top;childLayout=stackLayout;horizontal=1;startSize=26;horizontalStack=0;resizeParent=1;resizeParentMax=0;resizeLast=0;collapsible=1;marginBottom=0;fontColor=#4277BB;strokeWidth=1;gradientColor=none;" parent="NFE5jcaqBEwZ20pzX-tq-0" vertex="1">
          <mxGeometry x="30" y="880" width="240" height="190" as="geometry" />
        </mxCell>
        <mxCell id="NFE5jcaqBEwZ20pzX-tq-57" value="- categoryModel: Category" style="text;strokeColor=none;fillColor=none;align=left;verticalAlign=top;spacingLeft=4;spacingRight=4;overflow=hidden;rotatable=0;points=[[0,0.5],[1,0.5]];portConstraint=eastwest;fontColor=#4277BB;" parent="NFE5jcaqBEwZ20pzX-tq-56" vertex="1">
          <mxGeometry y="26" width="240" height="26" as="geometry" />
        </mxCell>
        <mxCell id="NFE5jcaqBEwZ20pzX-tq-58" value="" style="line;strokeWidth=1;fillColor=none;align=left;verticalAlign=middle;spacingTop=-1;spacingLeft=3;spacingRight=3;rotatable=0;labelPosition=right;points=[];portConstraint=eastwest;fontColor=#4277BB;" parent="NFE5jcaqBEwZ20pzX-tq-56" vertex="1">
          <mxGeometry y="52" width="240" height="8" as="geometry" />
        </mxCell>
        <mxCell id="NFE5jcaqBEwZ20pzX-tq-59" value="+ create(Category): Void" style="text;strokeColor=none;fillColor=none;align=left;verticalAlign=top;spacingLeft=4;spacingRight=4;overflow=hidden;rotatable=0;points=[[0,0.5],[1,0.5]];portConstraint=eastwest;fontColor=#4277BB;" parent="NFE5jcaqBEwZ20pzX-tq-56" vertex="1">
          <mxGeometry y="60" width="240" height="26" as="geometry" />
        </mxCell>
        <mxCell id="NFE5jcaqBEwZ20pzX-tq-60" value="+ readList(List&lt;Filter&gt;): List&lt;Category&gt;" style="text;strokeColor=none;fillColor=none;align=left;verticalAlign=top;spacingLeft=4;spacingRight=4;overflow=hidden;rotatable=0;points=[[0,0.5],[1,0.5]];portConstraint=eastwest;fontColor=#4277BB;" parent="NFE5jcaqBEwZ20pzX-tq-56" vertex="1">
          <mxGeometry y="86" width="240" height="26" as="geometry" />
        </mxCell>
        <mxCell id="NFE5jcaqBEwZ20pzX-tq-61" value="+ read(String):Â Category" style="text;strokeColor=none;fillColor=none;align=left;verticalAlign=top;spacingLeft=4;spacingRight=4;overflow=hidden;rotatable=0;points=[[0,0.5],[1,0.5]];portConstraint=eastwest;fontColor=#4277BB;" parent="NFE5jcaqBEwZ20pzX-tq-56" vertex="1">
          <mxGeometry y="112" width="240" height="26" as="geometry" />
        </mxCell>
        <mxCell id="NFE5jcaqBEwZ20pzX-tq-62" value="+ update(Category): Integer" style="text;strokeColor=none;fillColor=none;align=left;verticalAlign=top;spacingLeft=4;spacingRight=4;overflow=hidden;rotatable=0;points=[[0,0.5],[1,0.5]];portConstraint=eastwest;fontColor=#4277BB;" parent="NFE5jcaqBEwZ20pzX-tq-56" vertex="1">
          <mxGeometry y="138" width="240" height="26" as="geometry" />
        </mxCell>
        <mxCell id="NFE5jcaqBEwZ20pzX-tq-63" value="+ delete(Integer): Void" style="text;strokeColor=none;fillColor=none;align=left;verticalAlign=top;spacingLeft=4;spacingRight=4;overflow=hidden;rotatable=0;points=[[0,0.5],[1,0.5]];portConstraint=eastwest;fontColor=#4277BB;" parent="NFE5jcaqBEwZ20pzX-tq-56" vertex="1">
          <mxGeometry y="164" width="240" height="26" as="geometry" />
        </mxCell>
        <mxCell id="NFE5jcaqBEwZ20pzX-tq-67" value="Locales" style="swimlane;fontStyle=1;align=center;verticalAlign=top;childLayout=stackLayout;horizontal=1;startSize=26;horizontalStack=0;resizeParent=1;resizeParentMax=0;resizeLast=0;collapsible=1;marginBottom=0;fontColor=#4277BB;strokeWidth=1;gradientColor=none;" parent="NFE5jcaqBEwZ20pzX-tq-0" vertex="1">
          <mxGeometry x="30" y="460" width="240" height="190" as="geometry" />
        </mxCell>
        <mxCell id="NFE5jcaqBEwZ20pzX-tq-68" value="- localeModel:Â Locale" style="text;strokeColor=none;fillColor=none;align=left;verticalAlign=top;spacingLeft=4;spacingRight=4;overflow=hidden;rotatable=0;points=[[0,0.5],[1,0.5]];portConstraint=eastwest;fontColor=#4277BB;" parent="NFE5jcaqBEwZ20pzX-tq-67" vertex="1">
          <mxGeometry y="26" width="240" height="26" as="geometry" />
        </mxCell>
        <mxCell id="NFE5jcaqBEwZ20pzX-tq-69" value="" style="line;strokeWidth=1;fillColor=none;align=left;verticalAlign=middle;spacingTop=-1;spacingLeft=3;spacingRight=3;rotatable=0;labelPosition=right;points=[];portConstraint=eastwest;fontColor=#4277BB;" parent="NFE5jcaqBEwZ20pzX-tq-67" vertex="1">
          <mxGeometry y="52" width="240" height="8" as="geometry" />
        </mxCell>
        <mxCell id="NFE5jcaqBEwZ20pzX-tq-70" value="+ create(Locale): Void" style="text;strokeColor=none;fillColor=none;align=left;verticalAlign=top;spacingLeft=4;spacingRight=4;overflow=hidden;rotatable=0;points=[[0,0.5],[1,0.5]];portConstraint=eastwest;fontColor=#4277BB;" parent="NFE5jcaqBEwZ20pzX-tq-67" vertex="1">
          <mxGeometry y="60" width="240" height="26" as="geometry" />
        </mxCell>
        <mxCell id="NFE5jcaqBEwZ20pzX-tq-71" value="+ readList(List&lt;Filter&gt;): List&lt;Locale&gt;" style="text;strokeColor=none;fillColor=none;align=left;verticalAlign=top;spacingLeft=4;spacingRight=4;overflow=hidden;rotatable=0;points=[[0,0.5],[1,0.5]];portConstraint=eastwest;fontColor=#4277BB;" parent="NFE5jcaqBEwZ20pzX-tq-67" vertex="1">
          <mxGeometry y="86" width="240" height="26" as="geometry" />
        </mxCell>
        <mxCell id="NFE5jcaqBEwZ20pzX-tq-72" value="+ read(String):Â Locale" style="text;strokeColor=none;fillColor=none;align=left;verticalAlign=top;spacingLeft=4;spacingRight=4;overflow=hidden;rotatable=0;points=[[0,0.5],[1,0.5]];portConstraint=eastwest;fontColor=#4277BB;" parent="NFE5jcaqBEwZ20pzX-tq-67" vertex="1">
          <mxGeometry y="112" width="240" height="26" as="geometry" />
        </mxCell>
        <mxCell id="NFE5jcaqBEwZ20pzX-tq-73" value="+ update(Locale): Integer" style="text;strokeColor=none;fillColor=none;align=left;verticalAlign=top;spacingLeft=4;spacingRight=4;overflow=hidden;rotatable=0;points=[[0,0.5],[1,0.5]];portConstraint=eastwest;fontColor=#4277BB;" parent="NFE5jcaqBEwZ20pzX-tq-67" vertex="1">
          <mxGeometry y="138" width="240" height="26" as="geometry" />
        </mxCell>
        <mxCell id="NFE5jcaqBEwZ20pzX-tq-74" value="+ delete(Integer): Void" style="text;strokeColor=none;fillColor=none;align=left;verticalAlign=top;spacingLeft=4;spacingRight=4;overflow=hidden;rotatable=0;points=[[0,0.5],[1,0.5]];portConstraint=eastwest;fontColor=#4277BB;" parent="NFE5jcaqBEwZ20pzX-tq-67" vertex="1">
          <mxGeometry y="164" width="240" height="26" as="geometry" />
        </mxCell>
        <mxCell id="NFE5jcaqBEwZ20pzX-tq-75" value="MedicalSpecialties" style="swimlane;fontStyle=1;align=center;verticalAlign=top;childLayout=stackLayout;horizontal=1;startSize=26;horizontalStack=0;resizeParent=1;resizeParentMax=0;resizeLast=0;collapsible=1;marginBottom=0;fontColor=#4277BB;strokeWidth=1;gradientColor=none;" parent="NFE5jcaqBEwZ20pzX-tq-0" vertex="1">
          <mxGeometry x="30" y="669" width="240" height="190" as="geometry" />
        </mxCell>
        <mxCell id="NFE5jcaqBEwZ20pzX-tq-76" value="- specialtyModel:Â Specialty" style="text;strokeColor=none;fillColor=none;align=left;verticalAlign=top;spacingLeft=4;spacingRight=4;overflow=hidden;rotatable=0;points=[[0,0.5],[1,0.5]];portConstraint=eastwest;fontColor=#4277BB;" parent="NFE5jcaqBEwZ20pzX-tq-75" vertex="1">
          <mxGeometry y="26" width="240" height="26" as="geometry" />
        </mxCell>
        <mxCell id="NFE5jcaqBEwZ20pzX-tq-77" value="" style="line;strokeWidth=1;fillColor=none;align=left;verticalAlign=middle;spacingTop=-1;spacingLeft=3;spacingRight=3;rotatable=0;labelPosition=right;points=[];portConstraint=eastwest;fontColor=#4277BB;" parent="NFE5jcaqBEwZ20pzX-tq-75" vertex="1">
          <mxGeometry y="52" width="240" height="8" as="geometry" />
        </mxCell>
        <mxCell id="NFE5jcaqBEwZ20pzX-tq-78" value="+ create(Specialty): Void" style="text;strokeColor=none;fillColor=none;align=left;verticalAlign=top;spacingLeft=4;spacingRight=4;overflow=hidden;rotatable=0;points=[[0,0.5],[1,0.5]];portConstraint=eastwest;fontColor=#4277BB;" parent="NFE5jcaqBEwZ20pzX-tq-75" vertex="1">
          <mxGeometry y="60" width="240" height="26" as="geometry" />
        </mxCell>
        <mxCell id="NFE5jcaqBEwZ20pzX-tq-79" value="+ readList(List&lt;Filter&gt;): List&lt;Specialty&gt;" style="text;strokeColor=none;fillColor=none;align=left;verticalAlign=top;spacingLeft=4;spacingRight=4;overflow=hidden;rotatable=0;points=[[0,0.5],[1,0.5]];portConstraint=eastwest;fontColor=#4277BB;" parent="NFE5jcaqBEwZ20pzX-tq-75" vertex="1">
          <mxGeometry y="86" width="240" height="26" as="geometry" />
        </mxCell>
        <mxCell id="NFE5jcaqBEwZ20pzX-tq-80" value="+ read(String):Â Specialty" style="text;strokeColor=none;fillColor=none;align=left;verticalAlign=top;spacingLeft=4;spacingRight=4;overflow=hidden;rotatable=0;points=[[0,0.5],[1,0.5]];portConstraint=eastwest;fontColor=#4277BB;" parent="NFE5jcaqBEwZ20pzX-tq-75" vertex="1">
          <mxGeometry y="112" width="240" height="26" as="geometry" />
        </mxCell>
        <mxCell id="NFE5jcaqBEwZ20pzX-tq-81" value="+ update(Specialty): Integer" style="text;strokeColor=none;fillColor=none;align=left;verticalAlign=top;spacingLeft=4;spacingRight=4;overflow=hidden;rotatable=0;points=[[0,0.5],[1,0.5]];portConstraint=eastwest;fontColor=#4277BB;" parent="NFE5jcaqBEwZ20pzX-tq-75" vertex="1">
          <mxGeometry y="138" width="240" height="26" as="geometry" />
        </mxCell>
        <mxCell id="NFE5jcaqBEwZ20pzX-tq-82" value="+ delete(Integer): Void" style="text;strokeColor=none;fillColor=none;align=left;verticalAlign=top;spacingLeft=4;spacingRight=4;overflow=hidden;rotatable=0;points=[[0,0.5],[1,0.5]];portConstraint=eastwest;fontColor=#4277BB;" parent="NFE5jcaqBEwZ20pzX-tq-75" vertex="1">
          <mxGeometry y="164" width="240" height="26" as="geometry" />
        </mxCell>
        <mxCell id="NFE5jcaqBEwZ20pzX-tq-83" value="PeopleProfiles" style="swimlane;fontStyle=1;align=center;verticalAlign=top;childLayout=stackLayout;horizontal=1;startSize=26;horizontalStack=0;resizeParent=1;resizeParentMax=0;resizeLast=0;collapsible=1;marginBottom=0;fontColor=#4277BB;strokeWidth=1;gradientColor=none;" parent="NFE5jcaqBEwZ20pzX-tq-0" vertex="1">
          <mxGeometry x="390" y="700" width="240" height="268" as="geometry" />
        </mxCell>
        <mxCell id="NFE5jcaqBEwZ20pzX-tq-84" value="- profileModel:Â Profile" style="text;strokeColor=none;fillColor=none;align=left;verticalAlign=top;spacingLeft=4;spacingRight=4;overflow=hidden;rotatable=0;points=[[0,0.5],[1,0.5]];portConstraint=eastwest;fontColor=#4277BB;" parent="NFE5jcaqBEwZ20pzX-tq-83" vertex="1">
          <mxGeometry y="26" width="240" height="26" as="geometry" />
        </mxCell>
        <mxCell id="NFE5jcaqBEwZ20pzX-tq-93" value="- localeModel:Â Locale" style="text;strokeColor=none;fillColor=none;align=left;verticalAlign=top;spacingLeft=4;spacingRight=4;overflow=hidden;rotatable=0;points=[[0,0.5],[1,0.5]];portConstraint=eastwest;fontColor=#4277BB;" parent="NFE5jcaqBEwZ20pzX-tq-83" vertex="1">
          <mxGeometry y="52" width="240" height="26" as="geometry" />
        </mxCell>
        <mxCell id="NFE5jcaqBEwZ20pzX-tq-92" value="- specialtyModel:Â Specialty" style="text;strokeColor=none;fillColor=none;align=left;verticalAlign=top;spacingLeft=4;spacingRight=4;overflow=hidden;rotatable=0;points=[[0,0.5],[1,0.5]];portConstraint=eastwest;fontColor=#4277BB;" parent="NFE5jcaqBEwZ20pzX-tq-83" vertex="1">
          <mxGeometry y="78" width="240" height="26" as="geometry" />
        </mxCell>
        <mxCell id="NFE5jcaqBEwZ20pzX-tq-94" value="- categoryModel: Category" style="text;strokeColor=none;fillColor=none;align=left;verticalAlign=top;spacingLeft=4;spacingRight=4;overflow=hidden;rotatable=0;points=[[0,0.5],[1,0.5]];portConstraint=eastwest;fontColor=#4277BB;" parent="NFE5jcaqBEwZ20pzX-tq-83" vertex="1">
          <mxGeometry y="104" width="240" height="26" as="geometry" />
        </mxCell>
        <mxCell id="NFE5jcaqBEwZ20pzX-tq-85" value="" style="line;strokeWidth=1;fillColor=none;align=left;verticalAlign=middle;spacingTop=-1;spacingLeft=3;spacingRight=3;rotatable=0;labelPosition=right;points=[];portConstraint=eastwest;fontColor=#4277BB;" parent="NFE5jcaqBEwZ20pzX-tq-83" vertex="1">
          <mxGeometry y="130" width="240" height="8" as="geometry" />
        </mxCell>
        <mxCell id="NFE5jcaqBEwZ20pzX-tq-86" value="+ create(Profile): Void" style="text;strokeColor=none;fillColor=none;align=left;verticalAlign=top;spacingLeft=4;spacingRight=4;overflow=hidden;rotatable=0;points=[[0,0.5],[1,0.5]];portConstraint=eastwest;fontColor=#4277BB;" parent="NFE5jcaqBEwZ20pzX-tq-83" vertex="1">
          <mxGeometry y="138" width="240" height="26" as="geometry" />
        </mxCell>
        <mxCell id="NFE5jcaqBEwZ20pzX-tq-87" value="+ readList(List&lt;Filter&gt;): List&lt;Profile&gt;" style="text;strokeColor=none;fillColor=none;align=left;verticalAlign=top;spacingLeft=4;spacingRight=4;overflow=hidden;rotatable=0;points=[[0,0.5],[1,0.5]];portConstraint=eastwest;fontColor=#4277BB;" parent="NFE5jcaqBEwZ20pzX-tq-83" vertex="1">
          <mxGeometry y="164" width="240" height="26" as="geometry" />
        </mxCell>
        <mxCell id="NFE5jcaqBEwZ20pzX-tq-88" value="+ read(String):Â Profile" style="text;strokeColor=none;fillColor=none;align=left;verticalAlign=top;spacingLeft=4;spacingRight=4;overflow=hidden;rotatable=0;points=[[0,0.5],[1,0.5]];portConstraint=eastwest;fontColor=#4277BB;" parent="NFE5jcaqBEwZ20pzX-tq-83" vertex="1">
          <mxGeometry y="190" width="240" height="26" as="geometry" />
        </mxCell>
        <mxCell id="NFE5jcaqBEwZ20pzX-tq-89" value="+ update(Profile): Integer" style="text;strokeColor=none;fillColor=none;align=left;verticalAlign=top;spacingLeft=4;spacingRight=4;overflow=hidden;rotatable=0;points=[[0,0.5],[1,0.5]];portConstraint=eastwest;fontColor=#4277BB;" parent="NFE5jcaqBEwZ20pzX-tq-83" vertex="1">
          <mxGeometry y="216" width="240" height="26" as="geometry" />
        </mxCell>
        <mxCell id="NFE5jcaqBEwZ20pzX-tq-90" value="+ delete(Integer): Void" style="text;strokeColor=none;fillColor=none;align=left;verticalAlign=top;spacingLeft=4;spacingRight=4;overflow=hidden;rotatable=0;points=[[0,0.5],[1,0.5]];portConstraint=eastwest;fontColor=#4277BB;" parent="NFE5jcaqBEwZ20pzX-tq-83" vertex="1">
          <mxGeometry y="242" width="240" height="26" as="geometry" />
        </mxCell>
        <mxCell id="NFE5jcaqBEwZ20pzX-tq-95" value="People" style="swimlane;fontStyle=1;align=center;verticalAlign=top;childLayout=stackLayout;horizontal=1;startSize=26;horizontalStack=0;resizeParent=1;resizeParentMax=0;resizeLast=0;collapsible=1;marginBottom=0;fontColor=#4277BB;strokeWidth=1;gradientColor=none;" parent="NFE5jcaqBEwZ20pzX-tq-0" vertex="1">
          <mxGeometry x="750" y="700" width="240" height="242" as="geometry" />
        </mxCell>
        <mxCell id="NFE5jcaqBEwZ20pzX-tq-97" value="- personModel: Person" style="text;strokeColor=none;fillColor=none;align=left;verticalAlign=top;spacingLeft=4;spacingRight=4;overflow=hidden;rotatable=0;points=[[0,0.5],[1,0.5]];portConstraint=eastwest;fontColor=#4277BB;" parent="NFE5jcaqBEwZ20pzX-tq-95" vertex="1">
          <mxGeometry y="26" width="240" height="26" as="geometry" />
        </mxCell>
        <mxCell id="NFE5jcaqBEwZ20pzX-tq-96" value="- profileModel:Â Profile" style="text;strokeColor=none;fillColor=none;align=left;verticalAlign=top;spacingLeft=4;spacingRight=4;overflow=hidden;rotatable=0;points=[[0,0.5],[1,0.5]];portConstraint=eastwest;fontColor=#4277BB;" parent="NFE5jcaqBEwZ20pzX-tq-95" vertex="1">
          <mxGeometry y="52" width="240" height="26" as="geometry" />
        </mxCell>
        <mxCell id="NFE5jcaqBEwZ20pzX-tq-100" value="" style="line;strokeWidth=1;fillColor=none;align=left;verticalAlign=middle;spacingTop=-1;spacingLeft=3;spacingRight=3;rotatable=0;labelPosition=right;points=[];portConstraint=eastwest;fontColor=#4277BB;" parent="NFE5jcaqBEwZ20pzX-tq-95" vertex="1">
          <mxGeometry y="78" width="240" height="8" as="geometry" />
        </mxCell>
        <mxCell id="NFE5jcaqBEwZ20pzX-tq-101" value="+ create(Person): Void" style="text;strokeColor=none;fillColor=none;align=left;verticalAlign=top;spacingLeft=4;spacingRight=4;overflow=hidden;rotatable=0;points=[[0,0.5],[1,0.5]];portConstraint=eastwest;fontColor=#4277BB;" parent="NFE5jcaqBEwZ20pzX-tq-95" vertex="1">
          <mxGeometry y="86" width="240" height="26" as="geometry" />
        </mxCell>
        <mxCell id="NFE5jcaqBEwZ20pzX-tq-102" value="+ readList(List&lt;Filter&gt;): List&lt;Person&gt;" style="text;strokeColor=none;fillColor=none;align=left;verticalAlign=top;spacingLeft=4;spacingRight=4;overflow=hidden;rotatable=0;points=[[0,0.5],[1,0.5]];portConstraint=eastwest;fontColor=#4277BB;" parent="NFE5jcaqBEwZ20pzX-tq-95" vertex="1">
          <mxGeometry y="112" width="240" height="26" as="geometry" />
        </mxCell>
        <mxCell id="NFE5jcaqBEwZ20pzX-tq-103" value="+ read(Integer):Â Person" style="text;strokeColor=none;fillColor=none;align=left;verticalAlign=top;spacingLeft=4;spacingRight=4;overflow=hidden;rotatable=0;points=[[0,0.5],[1,0.5]];portConstraint=eastwest;fontColor=#4277BB;" parent="NFE5jcaqBEwZ20pzX-tq-95" vertex="1">
          <mxGeometry y="138" width="240" height="26" as="geometry" />
        </mxCell>
        <mxCell id="NFE5jcaqBEwZ20pzX-tq-104" value="+ update(Person): Integer" style="text;strokeColor=none;fillColor=none;align=left;verticalAlign=top;spacingLeft=4;spacingRight=4;overflow=hidden;rotatable=0;points=[[0,0.5],[1,0.5]];portConstraint=eastwest;fontColor=#4277BB;" parent="NFE5jcaqBEwZ20pzX-tq-95" vertex="1">
          <mxGeometry y="164" width="240" height="26" as="geometry" />
        </mxCell>
        <mxCell id="NFE5jcaqBEwZ20pzX-tq-105" value="+ delete(Integer): Void" style="text;strokeColor=none;fillColor=none;align=left;verticalAlign=top;spacingLeft=4;spacingRight=4;overflow=hidden;rotatable=0;points=[[0,0.5],[1,0.5]];portConstraint=eastwest;fontColor=#4277BB;" parent="NFE5jcaqBEwZ20pzX-tq-95" vertex="1">
          <mxGeometry y="190" width="240" height="26" as="geometry" />
        </mxCell>
        <mxCell id="NFE5jcaqBEwZ20pzX-tq-118" value="+ checkStatus(String): Boolean" style="text;strokeColor=none;fillColor=none;align=left;verticalAlign=top;spacingLeft=4;spacingRight=4;overflow=hidden;rotatable=0;points=[[0,0.5],[1,0.5]];portConstraint=eastwest;fontColor=#4277BB;" parent="NFE5jcaqBEwZ20pzX-tq-95" vertex="1">
          <mxGeometry y="216" width="240" height="26" as="geometry" />
        </mxCell>
        <mxCell id="NFE5jcaqBEwZ20pzX-tq-109" value="Relation" style="endArrow=open;html=1;endSize=12;startArrow=diamondThin;startSize=14;startFill=0;edgeStyle=orthogonalEdgeStyle;rounded=0;dashed=1;fontColor=#4277BB;exitX=1;exitY=0.5;exitDx=0;exitDy=0;entryX=0;entryY=0.5;entryDx=0;entryDy=0;" parent="NFE5jcaqBEwZ20pzX-tq-0" source="NFE5jcaqBEwZ20pzX-tq-57" target="NFE5jcaqBEwZ20pzX-tq-94" edge="1">
          <mxGeometry relative="1" as="geometry">
            <mxPoint x="560" y="1030" as="sourcePoint" />
            <mxPoint x="720" y="1030" as="targetPoint" />
            <Array as="points">
              <mxPoint x="310" y="919" />
              <mxPoint x="310" y="817" />
            </Array>
          </mxGeometry>
        </mxCell>
        <mxCell id="NFE5jcaqBEwZ20pzX-tq-110" value="0..n" style="edgeLabel;resizable=0;html=1;align=left;verticalAlign=top;fontColor=#4277BB;strokeWidth=1;gradientColor=none;" parent="NFE5jcaqBEwZ20pzX-tq-109" connectable="0" vertex="1">
          <mxGeometry x="-1" relative="1" as="geometry" />
        </mxCell>
        <mxCell id="NFE5jcaqBEwZ20pzX-tq-111" value="1" style="edgeLabel;resizable=0;html=1;align=right;verticalAlign=top;fontColor=#4277BB;strokeWidth=1;gradientColor=none;" parent="NFE5jcaqBEwZ20pzX-tq-109" connectable="0" vertex="1">
          <mxGeometry x="1" relative="1" as="geometry" />
        </mxCell>
        <mxCell id="NFE5jcaqBEwZ20pzX-tq-112" value="Relation" style="endArrow=open;html=1;endSize=12;startArrow=diamondThin;startSize=14;startFill=0;edgeStyle=orthogonalEdgeStyle;rounded=0;dashed=1;fontColor=#4277BB;exitX=1;exitY=0.5;exitDx=0;exitDy=0;entryX=0;entryY=0.5;entryDx=0;entryDy=0;" parent="NFE5jcaqBEwZ20pzX-tq-0" source="NFE5jcaqBEwZ20pzX-tq-68" target="NFE5jcaqBEwZ20pzX-tq-93" edge="1">
          <mxGeometry relative="1" as="geometry">
            <mxPoint x="640" y="1030" as="sourcePoint" />
            <mxPoint x="800" y="1030" as="targetPoint" />
            <Array as="points">
              <mxPoint x="320" y="499" />
              <mxPoint x="320" y="765" />
            </Array>
          </mxGeometry>
        </mxCell>
        <mxCell id="NFE5jcaqBEwZ20pzX-tq-113" value="0..n" style="edgeLabel;resizable=0;html=1;align=left;verticalAlign=top;fontColor=#4277BB;strokeWidth=1;gradientColor=none;" parent="NFE5jcaqBEwZ20pzX-tq-112" connectable="0" vertex="1">
          <mxGeometry x="-1" relative="1" as="geometry" />
        </mxCell>
        <mxCell id="NFE5jcaqBEwZ20pzX-tq-114" value="1" style="edgeLabel;resizable=0;html=1;align=right;verticalAlign=top;fontColor=#4277BB;strokeWidth=1;gradientColor=none;" parent="NFE5jcaqBEwZ20pzX-tq-112" connectable="0" vertex="1">
          <mxGeometry x="1" relative="1" as="geometry" />
        </mxCell>
        <mxCell id="NFE5jcaqBEwZ20pzX-tq-115" value="Relation" style="endArrow=open;html=1;endSize=12;startArrow=diamondThin;startSize=14;startFill=0;edgeStyle=orthogonalEdgeStyle;rounded=0;dashed=1;fontColor=#4277BB;exitX=1;exitY=0.5;exitDx=0;exitDy=0;entryX=0;entryY=0.5;entryDx=0;entryDy=0;" parent="NFE5jcaqBEwZ20pzX-tq-0" source="NFE5jcaqBEwZ20pzX-tq-76" target="NFE5jcaqBEwZ20pzX-tq-92" edge="1">
          <mxGeometry x="0.2118" relative="1" as="geometry">
            <mxPoint x="640" y="1030" as="sourcePoint" />
            <mxPoint x="800" y="1030" as="targetPoint" />
            <Array as="points">
              <mxPoint x="310" y="708" />
              <mxPoint x="310" y="791" />
            </Array>
            <mxPoint as="offset" />
          </mxGeometry>
        </mxCell>
        <mxCell id="NFE5jcaqBEwZ20pzX-tq-116" value="0..n" style="edgeLabel;resizable=0;html=1;align=left;verticalAlign=top;fontColor=#4277BB;strokeWidth=1;gradientColor=none;" parent="NFE5jcaqBEwZ20pzX-tq-115" connectable="0" vertex="1">
          <mxGeometry x="-1" relative="1" as="geometry" />
        </mxCell>
        <mxCell id="NFE5jcaqBEwZ20pzX-tq-117" value="1" style="edgeLabel;resizable=0;html=1;align=right;verticalAlign=top;fontColor=#4277BB;strokeWidth=1;gradientColor=none;" parent="NFE5jcaqBEwZ20pzX-tq-115" connectable="0" vertex="1">
          <mxGeometry x="1" relative="1" as="geometry" />
        </mxCell>
        <mxCell id="NFE5jcaqBEwZ20pzX-tq-119" value="PersonalProfile" style="endArrow=block;endFill=1;html=1;edgeStyle=orthogonalEdgeStyle;align=left;verticalAlign=top;rounded=0;dashed=1;fontColor=#4277BB;exitX=1;exitY=0.5;exitDx=0;exitDy=0;entryX=0;entryY=0.5;entryDx=0;entryDy=0;" parent="NFE5jcaqBEwZ20pzX-tq-0" source="NFE5jcaqBEwZ20pzX-tq-84" target="NFE5jcaqBEwZ20pzX-tq-96" edge="1">
          <mxGeometry x="-0.6183" y="-1" relative="1" as="geometry">
            <mxPoint x="1210" y="340" as="sourcePoint" />
            <mxPoint x="1370" y="340" as="targetPoint" />
            <mxPoint as="offset" />
          </mxGeometry>
        </mxCell>
        <mxCell id="NFE5jcaqBEwZ20pzX-tq-120" value="1" style="edgeLabel;resizable=0;html=1;align=left;verticalAlign=bottom;fontColor=#4277BB;strokeWidth=1;gradientColor=none;" parent="NFE5jcaqBEwZ20pzX-tq-119" connectable="0" vertex="1">
          <mxGeometry x="-1" relative="1" as="geometry" />
        </mxCell>
        <mxCell id="Ygsd2vXr3lFkf7jkut0j-4" value="Providers" style="swimlane;fontStyle=1;align=center;verticalAlign=top;childLayout=stackLayout;horizontal=1;startSize=26;horizontalStack=0;resizeParent=1;resizeParentMax=0;resizeLast=0;collapsible=1;marginBottom=0;fontColor=#4277BB;strokeWidth=1;gradientColor=none;" parent="NFE5jcaqBEwZ20pzX-tq-0" vertex="1">
          <mxGeometry x="390" y="362" width="240" height="268" as="geometry" />
        </mxCell>
        <mxCell id="Ygsd2vXr3lFkf7jkut0j-5" value="- providerModel: Provider" style="text;strokeColor=none;fillColor=none;align=left;verticalAlign=top;spacingLeft=4;spacingRight=4;overflow=hidden;rotatable=0;points=[[0,0.5],[1,0.5]];portConstraint=eastwest;fontColor=#4277BB;" parent="Ygsd2vXr3lFkf7jkut0j-4" vertex="1">
          <mxGeometry y="26" width="240" height="26" as="geometry" />
        </mxCell>
        <mxCell id="Ygsd2vXr3lFkf7jkut0j-6" value="- coverageListModel: List&lt;Coverage&gt;" style="text;strokeColor=none;fillColor=none;align=left;verticalAlign=top;spacingLeft=4;spacingRight=4;overflow=hidden;rotatable=0;points=[[0,0.5],[1,0.5]];portConstraint=eastwest;fontColor=#4277BB;" parent="Ygsd2vXr3lFkf7jkut0j-4" vertex="1">
          <mxGeometry y="52" width="240" height="26" as="geometry" />
        </mxCell>
        <mxCell id="Ygsd2vXr3lFkf7jkut0j-14" value="- peopleListModel: List&lt;People&gt;" style="text;strokeColor=none;fillColor=none;align=left;verticalAlign=top;spacingLeft=4;spacingRight=4;overflow=hidden;rotatable=0;points=[[0,0.5],[1,0.5]];portConstraint=eastwest;fontColor=#4277BB;" parent="Ygsd2vXr3lFkf7jkut0j-4" vertex="1">
          <mxGeometry y="78" width="240" height="26" as="geometry" />
        </mxCell>
        <mxCell id="Ygsd2vXr3lFkf7jkut0j-7" value="" style="line;strokeWidth=1;fillColor=none;align=left;verticalAlign=middle;spacingTop=-1;spacingLeft=3;spacingRight=3;rotatable=0;labelPosition=right;points=[];portConstraint=eastwest;fontColor=#4277BB;" parent="Ygsd2vXr3lFkf7jkut0j-4" vertex="1">
          <mxGeometry y="104" width="240" height="8" as="geometry" />
        </mxCell>
        <mxCell id="Ygsd2vXr3lFkf7jkut0j-8" value="+ create(Person): Void" style="text;strokeColor=none;fillColor=none;align=left;verticalAlign=top;spacingLeft=4;spacingRight=4;overflow=hidden;rotatable=0;points=[[0,0.5],[1,0.5]];portConstraint=eastwest;fontColor=#4277BB;" parent="Ygsd2vXr3lFkf7jkut0j-4" vertex="1">
          <mxGeometry y="112" width="240" height="26" as="geometry" />
        </mxCell>
        <mxCell id="Ygsd2vXr3lFkf7jkut0j-9" value="+ readList(List&lt;Filter&gt;): List&lt;Person&gt;" style="text;strokeColor=none;fillColor=none;align=left;verticalAlign=top;spacingLeft=4;spacingRight=4;overflow=hidden;rotatable=0;points=[[0,0.5],[1,0.5]];portConstraint=eastwest;fontColor=#4277BB;" parent="Ygsd2vXr3lFkf7jkut0j-4" vertex="1">
          <mxGeometry y="138" width="240" height="26" as="geometry" />
        </mxCell>
        <mxCell id="Ygsd2vXr3lFkf7jkut0j-10" value="+ read(Integer):Â Person" style="text;strokeColor=none;fillColor=none;align=left;verticalAlign=top;spacingLeft=4;spacingRight=4;overflow=hidden;rotatable=0;points=[[0,0.5],[1,0.5]];portConstraint=eastwest;fontColor=#4277BB;" parent="Ygsd2vXr3lFkf7jkut0j-4" vertex="1">
          <mxGeometry y="164" width="240" height="26" as="geometry" />
        </mxCell>
        <mxCell id="Ygsd2vXr3lFkf7jkut0j-11" value="+ update(Person): Integer" style="text;strokeColor=none;fillColor=none;align=left;verticalAlign=top;spacingLeft=4;spacingRight=4;overflow=hidden;rotatable=0;points=[[0,0.5],[1,0.5]];portConstraint=eastwest;fontColor=#4277BB;" parent="Ygsd2vXr3lFkf7jkut0j-4" vertex="1">
          <mxGeometry y="190" width="240" height="26" as="geometry" />
        </mxCell>
        <mxCell id="Ygsd2vXr3lFkf7jkut0j-12" value="+ delete(Integer): Void" style="text;strokeColor=none;fillColor=none;align=left;verticalAlign=top;spacingLeft=4;spacingRight=4;overflow=hidden;rotatable=0;points=[[0,0.5],[1,0.5]];portConstraint=eastwest;fontColor=#4277BB;" parent="Ygsd2vXr3lFkf7jkut0j-4" vertex="1">
          <mxGeometry y="216" width="240" height="26" as="geometry" />
        </mxCell>
        <mxCell id="Ygsd2vXr3lFkf7jkut0j-13" value="+ checkStatus(String): Boolean" style="text;strokeColor=none;fillColor=none;align=left;verticalAlign=top;spacingLeft=4;spacingRight=4;overflow=hidden;rotatable=0;points=[[0,0.5],[1,0.5]];portConstraint=eastwest;fontColor=#4277BB;" parent="Ygsd2vXr3lFkf7jkut0j-4" vertex="1">
          <mxGeometry y="242" width="240" height="26" as="geometry" />
        </mxCell>
        <mxCell id="Ygsd2vXr3lFkf7jkut0j-15" value="Relation" style="endArrow=open;html=1;endSize=12;startArrow=diamondThin;startSize=14;startFill=0;edgeStyle=orthogonalEdgeStyle;rounded=0;dashed=1;fontColor=#4277BB;exitX=1;exitY=0.5;exitDx=0;exitDy=0;entryX=0;entryY=0.5;entryDx=0;entryDy=0;" parent="NFE5jcaqBEwZ20pzX-tq-0" source="NFE5jcaqBEwZ20pzX-tq-33" target="Ygsd2vXr3lFkf7jkut0j-6" edge="1">
          <mxGeometry relative="1" as="geometry">
            <mxPoint x="355" y="349" as="sourcePoint" />
            <mxPoint x="50" y="660" as="targetPoint" />
            <Array as="points">
              <mxPoint x="1030" y="79" />
              <mxPoint x="1030" y="300" />
              <mxPoint x="350" y="300" />
              <mxPoint x="350" y="427" />
            </Array>
          </mxGeometry>
        </mxCell>
        <mxCell id="Ygsd2vXr3lFkf7jkut0j-16" value="0..n" style="edgeLabel;resizable=0;html=1;align=left;verticalAlign=top;fontColor=#4277BB;strokeWidth=1;gradientColor=none;" parent="Ygsd2vXr3lFkf7jkut0j-15" connectable="0" vertex="1">
          <mxGeometry x="-1" relative="1" as="geometry" />
        </mxCell>
        <mxCell id="Ygsd2vXr3lFkf7jkut0j-17" value="0..n" style="edgeLabel;resizable=0;html=1;align=right;verticalAlign=top;fontColor=#4277BB;strokeWidth=1;gradientColor=none;" parent="Ygsd2vXr3lFkf7jkut0j-15" connectable="0" vertex="1">
          <mxGeometry x="1" relative="1" as="geometry" />
        </mxCell>
        <mxCell id="NFE5jcaqBEwZ20pzX-tq-43" value="HealthInsurances" style="swimlane;fontStyle=1;align=center;verticalAlign=top;childLayout=stackLayout;horizontal=1;startSize=26;horizontalStack=0;resizeParent=1;resizeParentMax=0;resizeLast=0;collapsible=1;marginBottom=0;fontColor=#4277BB;strokeWidth=1;gradientColor=none;" parent="NFE5jcaqBEwZ20pzX-tq-0" vertex="1">
          <mxGeometry x="750" y="362" width="240" height="242" as="geometry" />
        </mxCell>
        <mxCell id="NFE5jcaqBEwZ20pzX-tq-45" value="- insuranceModel:Â Insurance" style="text;strokeColor=none;fillColor=none;align=left;verticalAlign=top;spacingLeft=4;spacingRight=4;overflow=hidden;rotatable=0;points=[[0,0.5],[1,0.5]];portConstraint=eastwest;fontColor=#4277BB;" parent="NFE5jcaqBEwZ20pzX-tq-43" vertex="1">
          <mxGeometry y="26" width="240" height="26" as="geometry" />
        </mxCell>
        <mxCell id="NFE5jcaqBEwZ20pzX-tq-44" value="- coverageListModel: List&lt;Coverage&gt;" style="text;strokeColor=none;fillColor=none;align=left;verticalAlign=top;spacingLeft=4;spacingRight=4;overflow=hidden;rotatable=0;points=[[0,0.5],[1,0.5]];portConstraint=eastwest;fontColor=#4277BB;" parent="NFE5jcaqBEwZ20pzX-tq-43" vertex="1">
          <mxGeometry y="52" width="240" height="26" as="geometry" />
        </mxCell>
        <mxCell id="NFE5jcaqBEwZ20pzX-tq-46" value="" style="line;strokeWidth=1;fillColor=none;align=left;verticalAlign=middle;spacingTop=-1;spacingLeft=3;spacingRight=3;rotatable=0;labelPosition=right;points=[];portConstraint=eastwest;fontColor=#4277BB;" parent="NFE5jcaqBEwZ20pzX-tq-43" vertex="1">
          <mxGeometry y="78" width="240" height="8" as="geometry" />
        </mxCell>
        <mxCell id="NFE5jcaqBEwZ20pzX-tq-47" value="+ create(Insurance): Void" style="text;strokeColor=none;fillColor=none;align=left;verticalAlign=top;spacingLeft=4;spacingRight=4;overflow=hidden;rotatable=0;points=[[0,0.5],[1,0.5]];portConstraint=eastwest;fontColor=#4277BB;" parent="NFE5jcaqBEwZ20pzX-tq-43" vertex="1">
          <mxGeometry y="86" width="240" height="26" as="geometry" />
        </mxCell>
        <mxCell id="NFE5jcaqBEwZ20pzX-tq-48" value="+ readList(List&lt;Filter&gt;): List&lt;Insurance&gt;" style="text;strokeColor=none;fillColor=none;align=left;verticalAlign=top;spacingLeft=4;spacingRight=4;overflow=hidden;rotatable=0;points=[[0,0.5],[1,0.5]];portConstraint=eastwest;fontColor=#4277BB;" parent="NFE5jcaqBEwZ20pzX-tq-43" vertex="1">
          <mxGeometry y="112" width="240" height="26" as="geometry" />
        </mxCell>
        <mxCell id="NFE5jcaqBEwZ20pzX-tq-49" value="+ read(String):Â Insurance" style="text;strokeColor=none;fillColor=none;align=left;verticalAlign=top;spacingLeft=4;spacingRight=4;overflow=hidden;rotatable=0;points=[[0,0.5],[1,0.5]];portConstraint=eastwest;fontColor=#4277BB;" parent="NFE5jcaqBEwZ20pzX-tq-43" vertex="1">
          <mxGeometry y="138" width="240" height="26" as="geometry" />
        </mxCell>
        <mxCell id="NFE5jcaqBEwZ20pzX-tq-50" value="+ update(Insurance): Integer" style="text;strokeColor=none;fillColor=none;align=left;verticalAlign=top;spacingLeft=4;spacingRight=4;overflow=hidden;rotatable=0;points=[[0,0.5],[1,0.5]];portConstraint=eastwest;fontColor=#4277BB;" parent="NFE5jcaqBEwZ20pzX-tq-43" vertex="1">
          <mxGeometry y="164" width="240" height="26" as="geometry" />
        </mxCell>
        <mxCell id="NFE5jcaqBEwZ20pzX-tq-51" value="+ delete(Integer): Void" style="text;strokeColor=none;fillColor=none;align=left;verticalAlign=top;spacingLeft=4;spacingRight=4;overflow=hidden;rotatable=0;points=[[0,0.5],[1,0.5]];portConstraint=eastwest;fontColor=#4277BB;" parent="NFE5jcaqBEwZ20pzX-tq-43" vertex="1">
          <mxGeometry y="190" width="240" height="26" as="geometry" />
        </mxCell>
        <mxCell id="NFE5jcaqBEwZ20pzX-tq-55" value="+ checkValidity(String): Boolean" style="text;strokeColor=none;fillColor=none;align=left;verticalAlign=top;spacingLeft=4;spacingRight=4;overflow=hidden;rotatable=0;points=[[0,0.5],[1,0.5]];portConstraint=eastwest;fontColor=#4277BB;" parent="NFE5jcaqBEwZ20pzX-tq-43" vertex="1">
          <mxGeometry y="216" width="240" height="26" as="geometry" />
        </mxCell>
        <object label="AgeGroups" id="_J8TebosFzN3dDydJsr--0">
          <mxCell style="swimlane;fontStyle=1;align=center;verticalAlign=top;childLayout=stackLayout;horizontal=1;startSize=26;horizontalStack=0;resizeParent=1;resizeParentMax=0;resizeLast=0;collapsible=1;marginBottom=0;fontColor=#4277BB;strokeWidth=1;gradientColor=none;" parent="NFE5jcaqBEwZ20pzX-tq-0" vertex="1">
            <mxGeometry x="30" y="250" width="240" height="190" as="geometry" />
          </mxCell>
        </object>
        <mxCell id="_J8TebosFzN3dDydJsr--1" value="- ageGroupModel: AgeGroup" style="text;strokeColor=none;fillColor=none;align=left;verticalAlign=top;spacingLeft=4;spacingRight=4;overflow=hidden;rotatable=0;points=[[0,0.5],[1,0.5]];portConstraint=eastwest;fontColor=#4277BB;" parent="_J8TebosFzN3dDydJsr--0" vertex="1">
          <mxGeometry y="26" width="240" height="26" as="geometry" />
        </mxCell>
        <mxCell id="_J8TebosFzN3dDydJsr--2" value="" style="line;strokeWidth=1;fillColor=none;align=left;verticalAlign=middle;spacingTop=-1;spacingLeft=3;spacingRight=3;rotatable=0;labelPosition=right;points=[];portConstraint=eastwest;fontColor=#4277BB;" parent="_J8TebosFzN3dDydJsr--0" vertex="1">
          <mxGeometry y="52" width="240" height="8" as="geometry" />
        </mxCell>
        <mxCell id="_J8TebosFzN3dDydJsr--3" value="+ create(AgeGroup): Void" style="text;strokeColor=none;fillColor=none;align=left;verticalAlign=top;spacingLeft=4;spacingRight=4;overflow=hidden;rotatable=0;points=[[0,0.5],[1,0.5]];portConstraint=eastwest;fontColor=#4277BB;" parent="_J8TebosFzN3dDydJsr--0" vertex="1">
          <mxGeometry y="60" width="240" height="26" as="geometry" />
        </mxCell>
        <mxCell id="_J8TebosFzN3dDydJsr--4" value="+ readList(List&lt;Filter&gt;): List&lt;AgeGroup&gt;" style="text;strokeColor=none;fillColor=none;align=left;verticalAlign=top;spacingLeft=4;spacingRight=4;overflow=hidden;rotatable=0;points=[[0,0.5],[1,0.5]];portConstraint=eastwest;fontColor=#4277BB;" parent="_J8TebosFzN3dDydJsr--0" vertex="1">
          <mxGeometry y="86" width="240" height="26" as="geometry" />
        </mxCell>
        <mxCell id="_J8TebosFzN3dDydJsr--5" value="+ read(Integer): AgeGroup" style="text;strokeColor=none;fillColor=none;align=left;verticalAlign=top;spacingLeft=4;spacingRight=4;overflow=hidden;rotatable=0;points=[[0,0.5],[1,0.5]];portConstraint=eastwest;fontColor=#4277BB;" parent="_J8TebosFzN3dDydJsr--0" vertex="1">
          <mxGeometry y="112" width="240" height="26" as="geometry" />
        </mxCell>
        <mxCell id="_J8TebosFzN3dDydJsr--6" value="+ update(AgeGroup): Integer" style="text;strokeColor=none;fillColor=none;align=left;verticalAlign=top;spacingLeft=4;spacingRight=4;overflow=hidden;rotatable=0;points=[[0,0.5],[1,0.5]];portConstraint=eastwest;fontColor=#4277BB;" parent="_J8TebosFzN3dDydJsr--0" vertex="1">
          <mxGeometry y="138" width="240" height="26" as="geometry" />
        </mxCell>
        <mxCell id="_J8TebosFzN3dDydJsr--7" value="+ delete(Integer): Void" style="text;strokeColor=none;fillColor=none;align=left;verticalAlign=top;spacingLeft=4;spacingRight=4;overflow=hidden;rotatable=0;points=[[0,0.5],[1,0.5]];portConstraint=eastwest;fontColor=#4277BB;" parent="_J8TebosFzN3dDydJsr--0" vertex="1">
          <mxGeometry y="164" width="240" height="26" as="geometry" />
        </mxCell>
        <mxCell id="_J8TebosFzN3dDydJsr--13" value="Relation" style="endArrow=open;html=1;endSize=12;startArrow=diamondThin;startSize=14;startFill=0;edgeStyle=orthogonalEdgeStyle;rounded=0;dashed=1;fontColor=#4277BB;entryX=0;entryY=0.5;entryDx=0;entryDy=0;exitX=1;exitY=0.5;exitDx=0;exitDy=0;" parent="NFE5jcaqBEwZ20pzX-tq-0" source="_J8TebosFzN3dDydJsr--1" target="_J8TebosFzN3dDydJsr--12" edge="1">
          <mxGeometry relative="1" as="geometry">
            <mxPoint x="380" y="340" as="sourcePoint" />
            <mxPoint x="450" y="366" as="targetPoint" />
          </mxGeometry>
        </mxCell>
        <mxCell id="_J8TebosFzN3dDydJsr--14" value="0..n" style="edgeLabel;resizable=0;html=1;align=left;verticalAlign=top;fontColor=#4277BB;strokeWidth=1;gradientColor=none;" parent="_J8TebosFzN3dDydJsr--13" connectable="0" vertex="1">
          <mxGeometry x="-1" relative="1" as="geometry" />
        </mxCell>
        <mxCell id="_J8TebosFzN3dDydJsr--15" value="1" style="edgeLabel;resizable=0;html=1;align=right;verticalAlign=top;fontColor=#4277BB;strokeWidth=1;gradientColor=none;" parent="_J8TebosFzN3dDydJsr--13" connectable="0" vertex="1">
          <mxGeometry x="1" relative="1" as="geometry" />
        </mxCell>
        <mxCell id="_J8TebosFzN3dDydJsr--18" value="Relation" style="endArrow=open;html=1;endSize=12;startArrow=diamondThin;startSize=14;startFill=0;edgeStyle=orthogonalEdgeStyle;rounded=0;dashed=1;fontColor=#4277BB;exitX=1;exitY=0.5;exitDx=0;exitDy=0;entryX=0;entryY=0.5;entryDx=0;entryDy=0;" parent="NFE5jcaqBEwZ20pzX-tq-0" source="NFE5jcaqBEwZ20pzX-tq-97" target="Ygsd2vXr3lFkf7jkut0j-14" edge="1">
          <mxGeometry relative="1" as="geometry">
            <mxPoint x="550" y="850" as="sourcePoint" />
            <mxPoint x="670" y="876" as="targetPoint" />
            <Array as="points">
              <mxPoint x="1030" y="739" />
              <mxPoint x="1030" y="650" />
              <mxPoint x="350" y="650" />
              <mxPoint x="350" y="453" />
            </Array>
          </mxGeometry>
        </mxCell>
        <mxCell id="_J8TebosFzN3dDydJsr--19" value="0..n" style="edgeLabel;resizable=0;html=1;align=left;verticalAlign=top;fontColor=#4277BB;strokeWidth=1;gradientColor=none;" parent="_J8TebosFzN3dDydJsr--18" connectable="0" vertex="1">
          <mxGeometry x="-1" relative="1" as="geometry" />
        </mxCell>
        <mxCell id="_J8TebosFzN3dDydJsr--20" value="0..n" style="edgeLabel;resizable=0;html=1;align=right;verticalAlign=top;fontColor=#4277BB;strokeWidth=1;gradientColor=none;" parent="_J8TebosFzN3dDydJsr--18" connectable="0" vertex="1">
          <mxGeometry x="1" relative="1" as="geometry" />
        </mxCell>
        <mxCell id="Zown6m40GGzjNLrpnyPk-0" value="Consult" style="swimlane;fontStyle=1;align=center;verticalAlign=top;childLayout=stackLayout;horizontal=1;startSize=26;horizontalStack=0;resizeParent=1;resizeParentMax=0;resizeLast=0;collapsible=1;marginBottom=0;fontColor=#4277BB;strokeWidth=1;gradientColor=none;" parent="NFE5jcaqBEwZ20pzX-tq-0" vertex="1">
          <mxGeometry x="1160" y="362" width="310" height="268" as="geometry" />
        </mxCell>
        <mxCell id="Zown6m40GGzjNLrpnyPk-1" value="- consultModel:Â Consult" style="text;strokeColor=none;fillColor=none;align=left;verticalAlign=top;spacingLeft=4;spacingRight=4;overflow=hidden;rotatable=0;points=[[0,0.5],[1,0.5]];portConstraint=eastwest;fontColor=#4277BB;" parent="Zown6m40GGzjNLrpnyPk-0" vertex="1">
          <mxGeometry y="26" width="310" height="26" as="geometry" />
        </mxCell>
        <mxCell id="Zown6m40GGzjNLrpnyPk-2" value="- authorizationModel: Authorization" style="text;strokeColor=none;fillColor=none;align=left;verticalAlign=top;spacingLeft=4;spacingRight=4;overflow=hidden;rotatable=0;points=[[0,0.5],[1,0.5]];portConstraint=eastwest;fontColor=#4277BB;" parent="Zown6m40GGzjNLrpnyPk-0" vertex="1">
          <mxGeometry y="52" width="310" height="26" as="geometry" />
        </mxCell>
        <mxCell id="Zown6m40GGzjNLrpnyPk-3" value="- providerModel: Provider" style="text;strokeColor=none;fillColor=none;align=left;verticalAlign=top;spacingLeft=4;spacingRight=4;overflow=hidden;rotatable=0;points=[[0,0.5],[1,0.5]];portConstraint=eastwest;fontColor=#4277BB;" parent="Zown6m40GGzjNLrpnyPk-0" vertex="1">
          <mxGeometry y="78" width="310" height="26" as="geometry" />
        </mxCell>
        <mxCell id="Zown6m40GGzjNLrpnyPk-4" value="- associateModel: Person" style="text;strokeColor=none;fillColor=none;align=left;verticalAlign=top;spacingLeft=4;spacingRight=4;overflow=hidden;rotatable=0;points=[[0,0.5],[1,0.5]];portConstraint=eastwest;fontColor=#4277BB;" parent="Zown6m40GGzjNLrpnyPk-0" vertex="1">
          <mxGeometry y="104" width="310" height="26" as="geometry" />
        </mxCell>
        <mxCell id="Zown6m40GGzjNLrpnyPk-5" value="" style="line;strokeWidth=1;fillColor=none;align=left;verticalAlign=middle;spacingTop=-1;spacingLeft=3;spacingRight=3;rotatable=0;labelPosition=right;points=[];portConstraint=eastwest;fontColor=#4277BB;" parent="Zown6m40GGzjNLrpnyPk-0" vertex="1">
          <mxGeometry y="130" width="310" height="8" as="geometry" />
        </mxCell>
        <mxCell id="Zown6m40GGzjNLrpnyPk-6" value="+ authorize(Provider, Associate): Authorization" style="text;strokeColor=none;fillColor=none;align=left;verticalAlign=top;spacingLeft=4;spacingRight=4;overflow=hidden;rotatable=0;points=[[0,0.5],[1,0.5]];portConstraint=eastwest;fontColor=#4277BB;" parent="Zown6m40GGzjNLrpnyPk-0" vertex="1">
          <mxGeometry y="138" width="310" height="26" as="geometry" />
        </mxCell>
        <mxCell id="Zown6m40GGzjNLrpnyPk-7" value="+ invalidate(Authorization): Protocol" style="text;strokeColor=none;fillColor=none;align=left;verticalAlign=top;spacingLeft=4;spacingRight=4;overflow=hidden;rotatable=0;points=[[0,0.5],[1,0.5]];portConstraint=eastwest;fontColor=#4277BB;" parent="Zown6m40GGzjNLrpnyPk-0" vertex="1">
          <mxGeometry y="164" width="310" height="26" as="geometry" />
        </mxCell>
        <mxCell id="Zown6m40GGzjNLrpnyPk-8" value="+ register(Provider, Associate, Authorization):Â Protocol" style="text;strokeColor=none;fillColor=none;align=left;verticalAlign=top;spacingLeft=4;spacingRight=4;overflow=hidden;rotatable=0;points=[[0,0.5],[1,0.5]];portConstraint=eastwest;fontColor=#4277BB;" parent="Zown6m40GGzjNLrpnyPk-0" vertex="1">
          <mxGeometry y="190" width="310" height="26" as="geometry" />
        </mxCell>
        <mxCell id="Zown6m40GGzjNLrpnyPk-9" value="+ update(Protocol, Consult): Protocol" style="text;strokeColor=none;fillColor=none;align=left;verticalAlign=top;spacingLeft=4;spacingRight=4;overflow=hidden;rotatable=0;points=[[0,0.5],[1,0.5]];portConstraint=eastwest;fontColor=#4277BB;" parent="Zown6m40GGzjNLrpnyPk-0" vertex="1">
          <mxGeometry y="216" width="310" height="26" as="geometry" />
        </mxCell>
        <mxCell id="Zown6m40GGzjNLrpnyPk-10" value="+ delete(Protocol): Void" style="text;strokeColor=none;fillColor=none;align=left;verticalAlign=top;spacingLeft=4;spacingRight=4;overflow=hidden;rotatable=0;points=[[0,0.5],[1,0.5]];portConstraint=eastwest;fontColor=#4277BB;" parent="Zown6m40GGzjNLrpnyPk-0" vertex="1">
          <mxGeometry y="242" width="310" height="26" as="geometry" />
        </mxCell>
        <mxCell id="Zown6m40GGzjNLrpnyPk-11" value="Exam" style="swimlane;fontStyle=1;align=center;verticalAlign=top;childLayout=stackLayout;horizontal=1;startSize=26;horizontalStack=0;resizeParent=1;resizeParentMax=0;resizeLast=0;collapsible=1;marginBottom=0;fontColor=#4277BB;strokeWidth=1;gradientColor=none;" parent="NFE5jcaqBEwZ20pzX-tq-0" vertex="1">
          <mxGeometry x="1160" y="700" width="310" height="268" as="geometry" />
        </mxCell>
        <mxCell id="Zown6m40GGzjNLrpnyPk-12" value="- examModel:Â Exam" style="text;strokeColor=none;fillColor=none;align=left;verticalAlign=top;spacingLeft=4;spacingRight=4;overflow=hidden;rotatable=0;points=[[0,0.5],[1,0.5]];portConstraint=eastwest;fontColor=#4277BB;" parent="Zown6m40GGzjNLrpnyPk-11" vertex="1">
          <mxGeometry y="26" width="310" height="26" as="geometry" />
        </mxCell>
        <mxCell id="Zown6m40GGzjNLrpnyPk-13" value="- authorizationModel: Authorization" style="text;strokeColor=none;fillColor=none;align=left;verticalAlign=top;spacingLeft=4;spacingRight=4;overflow=hidden;rotatable=0;points=[[0,0.5],[1,0.5]];portConstraint=eastwest;fontColor=#4277BB;" parent="Zown6m40GGzjNLrpnyPk-11" vertex="1">
          <mxGeometry y="52" width="310" height="26" as="geometry" />
        </mxCell>
        <mxCell id="Zown6m40GGzjNLrpnyPk-14" value="- providerModel: Provider" style="text;strokeColor=none;fillColor=none;align=left;verticalAlign=top;spacingLeft=4;spacingRight=4;overflow=hidden;rotatable=0;points=[[0,0.5],[1,0.5]];portConstraint=eastwest;fontColor=#4277BB;" parent="Zown6m40GGzjNLrpnyPk-11" vertex="1">
          <mxGeometry y="78" width="310" height="26" as="geometry" />
        </mxCell>
        <mxCell id="Zown6m40GGzjNLrpnyPk-15" value="- associateModel: Person" style="text;strokeColor=none;fillColor=none;align=left;verticalAlign=top;spacingLeft=4;spacingRight=4;overflow=hidden;rotatable=0;points=[[0,0.5],[1,0.5]];portConstraint=eastwest;fontColor=#4277BB;" parent="Zown6m40GGzjNLrpnyPk-11" vertex="1">
          <mxGeometry y="104" width="310" height="26" as="geometry" />
        </mxCell>
        <mxCell id="Zown6m40GGzjNLrpnyPk-16" value="" style="line;strokeWidth=1;fillColor=none;align=left;verticalAlign=middle;spacingTop=-1;spacingLeft=3;spacingRight=3;rotatable=0;labelPosition=right;points=[];portConstraint=eastwest;fontColor=#4277BB;" parent="Zown6m40GGzjNLrpnyPk-11" vertex="1">
          <mxGeometry y="130" width="310" height="8" as="geometry" />
        </mxCell>
        <mxCell id="Zown6m40GGzjNLrpnyPk-17" value="+ authorize(Provider, Associate): Authorization" style="text;strokeColor=none;fillColor=none;align=left;verticalAlign=top;spacingLeft=4;spacingRight=4;overflow=hidden;rotatable=0;points=[[0,0.5],[1,0.5]];portConstraint=eastwest;fontColor=#4277BB;" parent="Zown6m40GGzjNLrpnyPk-11" vertex="1">
          <mxGeometry y="138" width="310" height="26" as="geometry" />
        </mxCell>
        <mxCell id="Zown6m40GGzjNLrpnyPk-18" value="+ invalidate(Authorization): Protocol" style="text;strokeColor=none;fillColor=none;align=left;verticalAlign=top;spacingLeft=4;spacingRight=4;overflow=hidden;rotatable=0;points=[[0,0.5],[1,0.5]];portConstraint=eastwest;fontColor=#4277BB;" parent="Zown6m40GGzjNLrpnyPk-11" vertex="1">
          <mxGeometry y="164" width="310" height="26" as="geometry" />
        </mxCell>
        <mxCell id="Zown6m40GGzjNLrpnyPk-19" value="+ register(Provider, Associate, Authorization):Â Protocol" style="text;strokeColor=none;fillColor=none;align=left;verticalAlign=top;spacingLeft=4;spacingRight=4;overflow=hidden;rotatable=0;points=[[0,0.5],[1,0.5]];portConstraint=eastwest;fontColor=#4277BB;" parent="Zown6m40GGzjNLrpnyPk-11" vertex="1">
          <mxGeometry y="190" width="310" height="26" as="geometry" />
        </mxCell>
        <mxCell id="Zown6m40GGzjNLrpnyPk-20" value="+ update(Protocol, Exam): Protocol" style="text;strokeColor=none;fillColor=none;align=left;verticalAlign=top;spacingLeft=4;spacingRight=4;overflow=hidden;rotatable=0;points=[[0,0.5],[1,0.5]];portConstraint=eastwest;fontColor=#4277BB;" parent="Zown6m40GGzjNLrpnyPk-11" vertex="1">
          <mxGeometry y="216" width="310" height="26" as="geometry" />
        </mxCell>
        <mxCell id="Zown6m40GGzjNLrpnyPk-21" value="+ delete(Protocol): Void" style="text;strokeColor=none;fillColor=none;align=left;verticalAlign=top;spacingLeft=4;spacingRight=4;overflow=hidden;rotatable=0;points=[[0,0.5],[1,0.5]];portConstraint=eastwest;fontColor=#4277BB;" parent="Zown6m40GGzjNLrpnyPk-11" vertex="1">
          <mxGeometry y="242" width="310" height="26" as="geometry" />
        </mxCell>
        <mxCell id="Zown6m40GGzjNLrpnyPk-22" value="Policy" style="swimlane;fontStyle=1;align=center;verticalAlign=top;childLayout=stackLayout;horizontal=1;startSize=26;horizontalStack=0;resizeParent=1;resizeParentMax=0;resizeLast=0;collapsible=1;marginBottom=0;fontColor=#4277BB;strokeWidth=1;gradientColor=none;" parent="NFE5jcaqBEwZ20pzX-tq-0" vertex="1">
          <mxGeometry x="1160" y="40" width="310" height="190" as="geometry" />
        </mxCell>
        <mxCell id="Zown6m40GGzjNLrpnyPk-23" value="- policyModel: Policy" style="text;strokeColor=none;fillColor=none;align=left;verticalAlign=top;spacingLeft=4;spacingRight=4;overflow=hidden;rotatable=0;points=[[0,0.5],[1,0.5]];portConstraint=eastwest;fontColor=#4277BB;" parent="Zown6m40GGzjNLrpnyPk-22" vertex="1">
          <mxGeometry y="26" width="310" height="26" as="geometry" />
        </mxCell>
        <mxCell id="Zown6m40GGzjNLrpnyPk-24" value="- insuranceModel:Â Insurance" style="text;strokeColor=none;fillColor=none;align=left;verticalAlign=top;spacingLeft=4;spacingRight=4;overflow=hidden;rotatable=0;points=[[0,0.5],[1,0.5]];portConstraint=eastwest;fontColor=#4277BB;" parent="Zown6m40GGzjNLrpnyPk-22" vertex="1">
          <mxGeometry y="52" width="310" height="26" as="geometry" />
        </mxCell>
        <mxCell id="Zown6m40GGzjNLrpnyPk-25" value="- associateListModel: List&lt;Person&gt;" style="text;strokeColor=none;fillColor=none;align=left;verticalAlign=top;spacingLeft=4;spacingRight=4;overflow=hidden;rotatable=0;points=[[0,0.5],[1,0.5]];portConstraint=eastwest;fontColor=#4277BB;" parent="Zown6m40GGzjNLrpnyPk-22" vertex="1">
          <mxGeometry y="78" width="310" height="26" as="geometry" />
        </mxCell>
        <mxCell id="Zown6m40GGzjNLrpnyPk-26" value="" style="line;strokeWidth=1;fillColor=none;align=left;verticalAlign=middle;spacingTop=-1;spacingLeft=3;spacingRight=3;rotatable=0;labelPosition=right;points=[];portConstraint=eastwest;fontColor=#4277BB;" parent="Zown6m40GGzjNLrpnyPk-22" vertex="1">
          <mxGeometry y="104" width="310" height="8" as="geometry" />
        </mxCell>
        <mxCell id="Zown6m40GGzjNLrpnyPk-27" value="+ generate(Insurance, List&lt;Person&gt;): Policy" style="text;strokeColor=none;fillColor=none;align=left;verticalAlign=top;spacingLeft=4;spacingRight=4;overflow=hidden;rotatable=0;points=[[0,0.5],[1,0.5]];portConstraint=eastwest;fontColor=#4277BB;" parent="Zown6m40GGzjNLrpnyPk-22" vertex="1">
          <mxGeometry y="112" width="310" height="26" as="geometry" />
        </mxCell>
        <mxCell id="Zown6m40GGzjNLrpnyPk-28" value="+ invalidate(String): Policy" style="text;strokeColor=none;fillColor=none;align=left;verticalAlign=top;spacingLeft=4;spacingRight=4;overflow=hidden;rotatable=0;points=[[0,0.5],[1,0.5]];portConstraint=eastwest;fontColor=#4277BB;" parent="Zown6m40GGzjNLrpnyPk-22" vertex="1">
          <mxGeometry y="138" width="310" height="26" as="geometry" />
        </mxCell>
        <mxCell id="Zown6m40GGzjNLrpnyPk-29" value="+ checkStatus(String): Boolean" style="text;strokeColor=none;fillColor=none;align=left;verticalAlign=top;spacingLeft=4;spacingRight=4;overflow=hidden;rotatable=0;points=[[0,0.5],[1,0.5]];portConstraint=eastwest;fontColor=#4277BB;" parent="Zown6m40GGzjNLrpnyPk-22" vertex="1">
          <mxGeometry y="164" width="310" height="26" as="geometry" />
        </mxCell>
        <mxCell id="Zown6m40GGzjNLrpnyPk-30" value="Relation" style="endArrow=open;html=1;endSize=12;startArrow=diamondThin;startSize=14;startFill=0;edgeStyle=orthogonalEdgeStyle;rounded=0;dashed=1;fontColor=#4277BB;exitX=1;exitY=0.5;exitDx=0;exitDy=0;entryX=0;entryY=0.5;entryDx=0;entryDy=0;" parent="NFE5jcaqBEwZ20pzX-tq-0" source="NFE5jcaqBEwZ20pzX-tq-45" target="Zown6m40GGzjNLrpnyPk-24" edge="1">
          <mxGeometry relative="1" as="geometry">
            <mxPoint x="1040" y="420" as="sourcePoint" />
            <mxPoint x="1460" y="320" as="targetPoint" />
            <Array as="points">
              <mxPoint x="1060" y="401" />
              <mxPoint x="1060" y="105" />
            </Array>
          </mxGeometry>
        </mxCell>
        <mxCell id="Zown6m40GGzjNLrpnyPk-31" value="0..n" style="edgeLabel;resizable=0;html=1;align=left;verticalAlign=top;fontColor=#4277BB;strokeWidth=1;gradientColor=none;" parent="Zown6m40GGzjNLrpnyPk-30" connectable="0" vertex="1">
          <mxGeometry x="-1" relative="1" as="geometry" />
        </mxCell>
        <mxCell id="Zown6m40GGzjNLrpnyPk-32" value="1" style="edgeLabel;resizable=0;html=1;align=right;verticalAlign=top;fontColor=#4277BB;strokeWidth=1;gradientColor=none;" parent="Zown6m40GGzjNLrpnyPk-30" connectable="0" vertex="1">
          <mxGeometry x="1" relative="1" as="geometry" />
        </mxCell>
        <mxCell id="Zown6m40GGzjNLrpnyPk-36" value="Relation" style="endArrow=open;html=1;endSize=12;startArrow=diamondThin;startSize=14;startFill=0;edgeStyle=orthogonalEdgeStyle;rounded=0;dashed=1;fontColor=#4277BB;exitX=1;exitY=0.5;exitDx=0;exitDy=0;entryX=0;entryY=0.5;entryDx=0;entryDy=0;" parent="NFE5jcaqBEwZ20pzX-tq-0" source="NFE5jcaqBEwZ20pzX-tq-97" target="Zown6m40GGzjNLrpnyPk-25" edge="1">
          <mxGeometry relative="1" as="geometry">
            <mxPoint x="1000" y="411" as="sourcePoint" />
            <mxPoint x="1120" y="115" as="targetPoint" />
            <Array as="points">
              <mxPoint x="1060" y="739" />
              <mxPoint x="1060" y="131" />
            </Array>
          </mxGeometry>
        </mxCell>
        <mxCell id="Zown6m40GGzjNLrpnyPk-37" value="0..n" style="edgeLabel;resizable=0;html=1;align=left;verticalAlign=top;fontColor=#4277BB;strokeWidth=1;gradientColor=none;" parent="Zown6m40GGzjNLrpnyPk-36" connectable="0" vertex="1">
          <mxGeometry x="-1" relative="1" as="geometry" />
        </mxCell>
        <mxCell id="Zown6m40GGzjNLrpnyPk-38" value="1" style="edgeLabel;resizable=0;html=1;align=right;verticalAlign=top;fontColor=#4277BB;strokeWidth=1;gradientColor=none;" parent="Zown6m40GGzjNLrpnyPk-36" connectable="0" vertex="1">
          <mxGeometry x="1" relative="1" as="geometry" />
        </mxCell>
        <mxCell id="Zown6m40GGzjNLrpnyPk-39" value="Relation" style="endArrow=open;html=1;endSize=12;startArrow=diamondThin;startSize=14;startFill=0;edgeStyle=orthogonalEdgeStyle;rounded=0;dashed=1;fontColor=#4277BB;exitX=1;exitY=0.5;exitDx=0;exitDy=0;entryX=0;entryY=0.5;entryDx=0;entryDy=0;" parent="NFE5jcaqBEwZ20pzX-tq-0" source="NFE5jcaqBEwZ20pzX-tq-97" target="Zown6m40GGzjNLrpnyPk-4" edge="1">
          <mxGeometry x="0.0651" relative="1" as="geometry">
            <mxPoint x="1000" y="749" as="sourcePoint" />
            <mxPoint x="1170" y="141" as="targetPoint" />
            <Array as="points">
              <mxPoint x="1090" y="739" />
              <mxPoint x="1090" y="479" />
            </Array>
            <mxPoint as="offset" />
          </mxGeometry>
        </mxCell>
        <mxCell id="Zown6m40GGzjNLrpnyPk-40" value="0..n" style="edgeLabel;resizable=0;html=1;align=left;verticalAlign=top;fontColor=#4277BB;strokeWidth=1;gradientColor=none;" parent="Zown6m40GGzjNLrpnyPk-39" connectable="0" vertex="1">
          <mxGeometry x="-1" relative="1" as="geometry" />
        </mxCell>
        <mxCell id="Zown6m40GGzjNLrpnyPk-41" value="1" style="edgeLabel;resizable=0;html=1;align=right;verticalAlign=top;fontColor=#4277BB;strokeWidth=1;gradientColor=none;" parent="Zown6m40GGzjNLrpnyPk-39" connectable="0" vertex="1">
          <mxGeometry x="1" relative="1" as="geometry" />
        </mxCell>
        <mxCell id="Zown6m40GGzjNLrpnyPk-45" value="Relation" style="endArrow=open;html=1;endSize=12;startArrow=diamondThin;startSize=14;startFill=0;edgeStyle=orthogonalEdgeStyle;rounded=0;dashed=1;fontColor=#4277BB;exitX=1;exitY=0.5;exitDx=0;exitDy=0;entryX=0;entryY=0.5;entryDx=0;entryDy=0;" parent="NFE5jcaqBEwZ20pzX-tq-0" source="Ygsd2vXr3lFkf7jkut0j-5" target="Zown6m40GGzjNLrpnyPk-3" edge="1">
          <mxGeometry relative="1" as="geometry">
            <mxPoint x="1000" y="749" as="sourcePoint" />
            <mxPoint x="1170" y="489" as="targetPoint" />
            <Array as="points">
              <mxPoint x="670" y="401" />
              <mxPoint x="670" y="630" />
              <mxPoint x="1120" y="630" />
              <mxPoint x="1120" y="453" />
            </Array>
          </mxGeometry>
        </mxCell>
        <mxCell id="Zown6m40GGzjNLrpnyPk-46" value="0..n" style="edgeLabel;resizable=0;html=1;align=left;verticalAlign=top;fontColor=#4277BB;strokeWidth=1;gradientColor=none;" parent="Zown6m40GGzjNLrpnyPk-45" connectable="0" vertex="1">
          <mxGeometry x="-1" relative="1" as="geometry" />
        </mxCell>
        <mxCell id="Zown6m40GGzjNLrpnyPk-47" value="1" style="edgeLabel;resizable=0;html=1;align=right;verticalAlign=top;fontColor=#4277BB;strokeWidth=1;gradientColor=none;" parent="Zown6m40GGzjNLrpnyPk-45" connectable="0" vertex="1">
          <mxGeometry x="1" relative="1" as="geometry" />
        </mxCell>
        <mxCell id="Zown6m40GGzjNLrpnyPk-48" value="Relation" style="endArrow=open;html=1;endSize=12;startArrow=diamondThin;startSize=14;startFill=0;edgeStyle=orthogonalEdgeStyle;rounded=0;dashed=1;fontColor=#4277BB;exitX=1;exitY=0.5;exitDx=0;exitDy=0;entryX=0;entryY=0.5;entryDx=0;entryDy=0;" parent="NFE5jcaqBEwZ20pzX-tq-0" source="Ygsd2vXr3lFkf7jkut0j-5" target="Zown6m40GGzjNLrpnyPk-14" edge="1">
          <mxGeometry relative="1" as="geometry">
            <mxPoint x="640" y="411" as="sourcePoint" />
            <mxPoint x="1170" y="463" as="targetPoint" />
            <Array as="points">
              <mxPoint x="670" y="401" />
              <mxPoint x="670" y="630" />
              <mxPoint x="1120" y="630" />
              <mxPoint x="1120" y="791" />
            </Array>
          </mxGeometry>
        </mxCell>
        <mxCell id="Zown6m40GGzjNLrpnyPk-49" value="0..n" style="edgeLabel;resizable=0;html=1;align=left;verticalAlign=top;fontColor=#4277BB;strokeWidth=1;gradientColor=none;" parent="Zown6m40GGzjNLrpnyPk-48" connectable="0" vertex="1">
          <mxGeometry x="-1" relative="1" as="geometry" />
        </mxCell>
        <mxCell id="Zown6m40GGzjNLrpnyPk-50" value="1" style="edgeLabel;resizable=0;html=1;align=right;verticalAlign=top;fontColor=#4277BB;strokeWidth=1;gradientColor=none;" parent="Zown6m40GGzjNLrpnyPk-48" connectable="0" vertex="1">
          <mxGeometry x="1" relative="1" as="geometry" />
        </mxCell>
        <mxCell id="Zown6m40GGzjNLrpnyPk-42" value="Relation" style="endArrow=open;html=1;endSize=12;startArrow=diamondThin;startSize=14;startFill=0;edgeStyle=orthogonalEdgeStyle;rounded=0;dashed=1;fontColor=#4277BB;entryX=0;entryY=0.5;entryDx=0;entryDy=0;" parent="r9ZrSJ4VWCq3yXywwIYW-1" target="Zown6m40GGzjNLrpnyPk-15" edge="1">
          <mxGeometry relative="1" as="geometry">
            <mxPoint x="1000" y="760" as="sourcePoint" />
            <mxPoint x="1180" y="509" as="targetPoint" />
            <Array as="points">
              <mxPoint x="1100" y="760" />
              <mxPoint x="1100" y="837" />
            </Array>
          </mxGeometry>
        </mxCell>
        <mxCell id="Zown6m40GGzjNLrpnyPk-43" value="0..n" style="edgeLabel;resizable=0;html=1;align=left;verticalAlign=top;fontColor=#4277BB;strokeWidth=1;gradientColor=none;" parent="Zown6m40GGzjNLrpnyPk-42" connectable="0" vertex="1">
          <mxGeometry x="-1" relative="1" as="geometry" />
        </mxCell>
        <mxCell id="Zown6m40GGzjNLrpnyPk-44" value="1" style="edgeLabel;resizable=0;html=1;align=right;verticalAlign=top;fontColor=#4277BB;strokeWidth=1;gradientColor=none;" parent="Zown6m40GGzjNLrpnyPk-42" connectable="0" vertex="1">
          <mxGeometry x="1" relative="1" as="geometry" />
        </mxCell>
      </root>
    </mxGraphModel>
  </diagram>
  <diagram id="HIcnpmZ-lDFooEijz_Dc" name="Components">
    <mxGraphModel dx="1186" dy="1730" grid="1" gridSize="10" guides="1" tooltips="1" connect="1" arrows="1" fold="1" page="1" pageScale="1" pageWidth="850" pageHeight="1100" math="0" shadow="0">
      <root>
        <mxCell id="0" />
        <mxCell id="1" parent="0" />
        <mxCell id="wS6DsiPgcqZ_qCfvMvsq-8" value="Components Diagram" style="swimlane;fontColor=#4277BB;strokeWidth=1;gradientColor=none;" parent="1" vertex="1">
          <mxGeometry x="22" y="-1080" width="1458" height="730" as="geometry" />
        </mxCell>
        <mxCell id="K0Y5WrvYCHPc4mKxkMIb-21" style="edgeStyle=orthogonalEdgeStyle;rounded=0;orthogonalLoop=1;jettySize=auto;html=1;exitX=0.5;exitY=1;exitDx=0;exitDy=0;entryX=0.25;entryY=0;entryDx=0;entryDy=0;dashed=1;" parent="wS6DsiPgcqZ_qCfvMvsq-8" source="wS6DsiPgcqZ_qCfvMvsq-2" target="wS6DsiPgcqZ_qCfvMvsq-9" edge="1">
          <mxGeometry relative="1" as="geometry" />
        </mxCell>
        <mxCell id="wS6DsiPgcqZ_qCfvMvsq-2" value="Â«applicationÂ»&lt;br&gt;&lt;b&gt;Web&lt;/b&gt;" style="html=1;dropTarget=0;fontColor=#4277BB;strokeWidth=1;gradientColor=none;" parent="wS6DsiPgcqZ_qCfvMvsq-8" vertex="1">
          <mxGeometry x="20" y="40" width="180" height="50" as="geometry" />
        </mxCell>
        <mxCell id="wS6DsiPgcqZ_qCfvMvsq-3" value="" style="shape=module;jettyWidth=8;jettyHeight=4;fontColor=#4277BB;strokeWidth=1;gradientColor=none;" parent="wS6DsiPgcqZ_qCfvMvsq-2" vertex="1">
          <mxGeometry x="1" width="20" height="20" relative="1" as="geometry">
            <mxPoint x="-27" y="7" as="offset" />
          </mxGeometry>
        </mxCell>
        <mxCell id="K0Y5WrvYCHPc4mKxkMIb-22" style="edgeStyle=orthogonalEdgeStyle;rounded=0;orthogonalLoop=1;jettySize=auto;html=1;exitX=0.5;exitY=1;exitDx=0;exitDy=0;entryX=0.5;entryY=0;entryDx=0;entryDy=0;dashed=1;" parent="wS6DsiPgcqZ_qCfvMvsq-8" source="wS6DsiPgcqZ_qCfvMvsq-4" target="wS6DsiPgcqZ_qCfvMvsq-9" edge="1">
          <mxGeometry relative="1" as="geometry" />
        </mxCell>
        <mxCell id="wS6DsiPgcqZ_qCfvMvsq-4" value="Â«applicationÂ»&lt;br&gt;&lt;b&gt;Mobile&lt;/b&gt;" style="html=1;dropTarget=0;fontColor=#4277BB;strokeWidth=1;gradientColor=none;" parent="wS6DsiPgcqZ_qCfvMvsq-8" vertex="1">
          <mxGeometry x="640" y="40" width="180" height="50" as="geometry" />
        </mxCell>
        <mxCell id="wS6DsiPgcqZ_qCfvMvsq-5" value="" style="shape=module;jettyWidth=8;jettyHeight=4;fontColor=#4277BB;strokeWidth=1;gradientColor=none;" parent="wS6DsiPgcqZ_qCfvMvsq-4" vertex="1">
          <mxGeometry x="1" width="20" height="20" relative="1" as="geometry">
            <mxPoint x="-27" y="7" as="offset" />
          </mxGeometry>
        </mxCell>
        <mxCell id="K0Y5WrvYCHPc4mKxkMIb-23" style="edgeStyle=orthogonalEdgeStyle;rounded=0;orthogonalLoop=1;jettySize=auto;html=1;exitX=0.5;exitY=1;exitDx=0;exitDy=0;entryX=0.75;entryY=0;entryDx=0;entryDy=0;dashed=1;" parent="wS6DsiPgcqZ_qCfvMvsq-8" source="wS6DsiPgcqZ_qCfvMvsq-6" target="wS6DsiPgcqZ_qCfvMvsq-9" edge="1">
          <mxGeometry relative="1" as="geometry" />
        </mxCell>
        <mxCell id="wS6DsiPgcqZ_qCfvMvsq-6" value="Â«applicationÂ»&lt;br&gt;&lt;b&gt;Desktop&lt;/b&gt;" style="html=1;dropTarget=0;fontColor=#4277BB;strokeWidth=1;gradientColor=none;" parent="wS6DsiPgcqZ_qCfvMvsq-8" vertex="1">
          <mxGeometry x="1260" y="40" width="180" height="50" as="geometry" />
        </mxCell>
        <mxCell id="wS6DsiPgcqZ_qCfvMvsq-7" value="" style="shape=module;jettyWidth=8;jettyHeight=4;fontColor=#4277BB;strokeWidth=1;gradientColor=none;" parent="wS6DsiPgcqZ_qCfvMvsq-6" vertex="1">
          <mxGeometry x="1" width="20" height="20" relative="1" as="geometry">
            <mxPoint x="-27" y="7" as="offset" />
          </mxGeometry>
        </mxCell>
        <mxCell id="K0Y5WrvYCHPc4mKxkMIb-24" value="&amp;lt;&amp;lt;JWT&amp;gt;&amp;gt;" style="edgeStyle=orthogonalEdgeStyle;rounded=0;orthogonalLoop=1;jettySize=auto;html=1;exitX=0.5;exitY=1;exitDx=0;exitDy=0;entryX=0.5;entryY=0;entryDx=0;entryDy=0;dashed=1;" parent="wS6DsiPgcqZ_qCfvMvsq-8" source="wS6DsiPgcqZ_qCfvMvsq-9" target="wS6DsiPgcqZ_qCfvMvsq-10" edge="1">
          <mxGeometry relative="1" as="geometry" />
        </mxCell>
        <mxCell id="wS6DsiPgcqZ_qCfvMvsq-9" value="API Gateway&amp;nbsp;" style="rounded=0;whiteSpace=wrap;html=1;fontColor=#4277BB;strokeWidth=1;gradientColor=none;" parent="wS6DsiPgcqZ_qCfvMvsq-8" vertex="1">
          <mxGeometry x="20" y="130" width="1420" height="30" as="geometry" />
        </mxCell>
        <mxCell id="wS6DsiPgcqZ_qCfvMvsq-10" value="Application Layer" style="swimlane;fontColor=#4277BB;strokeWidth=1;gradientColor=none;" parent="wS6DsiPgcqZ_qCfvMvsq-8" vertex="1">
          <mxGeometry x="20" y="200" width="1420" height="380" as="geometry" />
        </mxCell>
        <mxCell id="K0Y5WrvYCHPc4mKxkMIb-3" value="Â«serverÂ»&lt;br&gt;&lt;span style=&quot;font-weight: bold&quot;&gt;Eureka&lt;/span&gt;" style="html=1;dropTarget=0;fontColor=#4277BB;strokeWidth=1;gradientColor=none;" parent="wS6DsiPgcqZ_qCfvMvsq-10" vertex="1">
          <mxGeometry x="465" y="280" width="160" height="50" as="geometry" />
        </mxCell>
        <mxCell id="K0Y5WrvYCHPc4mKxkMIb-4" value="" style="shape=module;jettyWidth=8;jettyHeight=4;fontColor=#4277BB;strokeWidth=1;gradientColor=none;" parent="K0Y5WrvYCHPc4mKxkMIb-3" vertex="1">
          <mxGeometry x="1" width="20" height="20" relative="1" as="geometry">
            <mxPoint x="-27" y="7" as="offset" />
          </mxGeometry>
        </mxCell>
        <mxCell id="K0Y5WrvYCHPc4mKxkMIb-14" value="Â«interfaceÂ»&lt;br&gt;&lt;span style=&quot;font-weight: bold&quot;&gt;JPA SQL&lt;/span&gt;" style="html=1;dropTarget=0;fontColor=#4277BB;strokeWidth=1;gradientColor=none;" parent="wS6DsiPgcqZ_qCfvMvsq-10" vertex="1">
          <mxGeometry x="110" y="320" width="160" height="50" as="geometry" />
        </mxCell>
        <mxCell id="K0Y5WrvYCHPc4mKxkMIb-15" value="" style="shape=module;jettyWidth=8;jettyHeight=4;fontColor=#4277BB;strokeWidth=1;gradientColor=none;" parent="K0Y5WrvYCHPc4mKxkMIb-14" vertex="1">
          <mxGeometry x="1" width="20" height="20" relative="1" as="geometry">
            <mxPoint x="-27" y="7" as="offset" />
          </mxGeometry>
        </mxCell>
        <mxCell id="K0Y5WrvYCHPc4mKxkMIb-16" value="Â«interfaceÂ»&lt;br&gt;&lt;span style=&quot;font-weight: bold&quot;&gt;JPA NoSQL&lt;/span&gt;" style="html=1;dropTarget=0;fontColor=#4277BB;strokeWidth=1;gradientColor=none;" parent="wS6DsiPgcqZ_qCfvMvsq-10" vertex="1">
          <mxGeometry x="815" y="320" width="160" height="50" as="geometry" />
        </mxCell>
        <mxCell id="K0Y5WrvYCHPc4mKxkMIb-17" value="" style="shape=module;jettyWidth=8;jettyHeight=4;fontColor=#4277BB;strokeWidth=1;gradientColor=none;" parent="K0Y5WrvYCHPc4mKxkMIb-16" vertex="1">
          <mxGeometry x="1" width="20" height="20" relative="1" as="geometry">
            <mxPoint x="-27" y="7" as="offset" />
          </mxGeometry>
        </mxCell>
        <mxCell id="K0Y5WrvYCHPc4mKxkMIb-27" value="RI Module" style="swimlane;fontColor=#4277BB;strokeWidth=1;gradientColor=none;" parent="wS6DsiPgcqZ_qCfvMvsq-10" vertex="1">
          <mxGeometry x="22" y="40" width="1008" height="150" as="geometry" />
        </mxCell>
        <mxCell id="w2xOiYtNnoyDwB2i5Mjn-1" value="Â«microserviceÂ»&lt;br&gt;&lt;b&gt;CATEGORIES-API&lt;/b&gt;" style="html=1;dropTarget=0;fontColor=#4277BB;strokeWidth=1;gradientColor=none;" parent="K0Y5WrvYCHPc4mKxkMIb-27" vertex="1">
          <mxGeometry x="175" y="30" width="160" height="50" as="geometry" />
        </mxCell>
        <mxCell id="w2xOiYtNnoyDwB2i5Mjn-2" value="" style="shape=module;jettyWidth=8;jettyHeight=4;fontColor=#4277BB;strokeWidth=1;gradientColor=none;" parent="w2xOiYtNnoyDwB2i5Mjn-1" vertex="1">
          <mxGeometry x="1" width="20" height="20" relative="1" as="geometry">
            <mxPoint x="-27" y="7" as="offset" />
          </mxGeometry>
        </mxCell>
        <mxCell id="pben5a0e3PFMjHbWHKec-1" value="Â«microserviceÂ»&lt;br&gt;&lt;b&gt;AGE-GROUPS-API&lt;/b&gt;" style="html=1;dropTarget=0;fontColor=#4277BB;strokeWidth=1;gradientColor=none;" parent="K0Y5WrvYCHPc4mKxkMIb-27" vertex="1">
          <mxGeometry x="10" y="30" width="160" height="50" as="geometry" />
        </mxCell>
        <mxCell id="pben5a0e3PFMjHbWHKec-2" value="" style="shape=module;jettyWidth=8;jettyHeight=4;fontColor=#4277BB;strokeWidth=1;gradientColor=none;" parent="pben5a0e3PFMjHbWHKec-1" vertex="1">
          <mxGeometry x="1" width="20" height="20" relative="1" as="geometry">
            <mxPoint x="-27" y="7" as="offset" />
          </mxGeometry>
        </mxCell>
        <mxCell id="ciW2fLgwkx50LnAXR3gx-1" value="Â«microserviceÂ»&lt;br&gt;&lt;b&gt;LOCALES-API&lt;/b&gt;" style="html=1;dropTarget=0;fontColor=#4277BB;strokeWidth=1;gradientColor=none;" parent="K0Y5WrvYCHPc4mKxkMIb-27" vertex="1">
          <mxGeometry x="426" y="90" width="160" height="50" as="geometry" />
        </mxCell>
        <mxCell id="ciW2fLgwkx50LnAXR3gx-2" value="" style="shape=module;jettyWidth=8;jettyHeight=4;fontColor=#4277BB;strokeWidth=1;gradientColor=none;" parent="ciW2fLgwkx50LnAXR3gx-1" vertex="1">
          <mxGeometry x="1" width="20" height="20" relative="1" as="geometry">
            <mxPoint x="-27" y="7" as="offset" />
          </mxGeometry>
        </mxCell>
        <mxCell id="zA5Fd3a07V4TufqjMt0U-1" value="Â«microserviceÂ»&lt;br&gt;&lt;b&gt;DISEASES-API&lt;/b&gt;" style="html=1;dropTarget=0;fontColor=#4277BB;strokeWidth=1;gradientColor=none;" parent="K0Y5WrvYCHPc4mKxkMIb-27" vertex="1">
          <mxGeometry x="96" y="90" width="160" height="50" as="geometry" />
        </mxCell>
        <mxCell id="zA5Fd3a07V4TufqjMt0U-2" value="" style="shape=module;jettyWidth=8;jettyHeight=4;fontColor=#4277BB;strokeWidth=1;gradientColor=none;" parent="zA5Fd3a07V4TufqjMt0U-1" vertex="1">
          <mxGeometry x="1" width="20" height="20" relative="1" as="geometry">
            <mxPoint x="-27" y="7" as="offset" />
          </mxGeometry>
        </mxCell>
        <mxCell id="eD-PuTqHqA-HWhWciFmf-1" value="Â«microserviceÂ»&lt;br&gt;&lt;b&gt;PROFILES-API&lt;/b&gt;" style="html=1;dropTarget=0;fontColor=#4277BB;strokeWidth=1;gradientColor=none;" parent="K0Y5WrvYCHPc4mKxkMIb-27" vertex="1">
          <mxGeometry x="756" y="90" width="160" height="50" as="geometry" />
        </mxCell>
        <mxCell id="eD-PuTqHqA-HWhWciFmf-2" value="" style="shape=module;jettyWidth=8;jettyHeight=4;fontColor=#4277BB;strokeWidth=1;gradientColor=none;" parent="eD-PuTqHqA-HWhWciFmf-1" vertex="1">
          <mxGeometry x="1" width="20" height="20" relative="1" as="geometry">
            <mxPoint x="-27" y="7" as="offset" />
          </mxGeometry>
        </mxCell>
        <mxCell id="wS6DsiPgcqZ_qCfvMvsq-17" value="Â«microserviceÂ»&lt;br&gt;&lt;b&gt;PEOPLE-API&lt;/b&gt;" style="html=1;dropTarget=0;fontColor=#4277BB;strokeWidth=1;gradientColor=none;" parent="K0Y5WrvYCHPc4mKxkMIb-27" vertex="1">
          <mxGeometry x="836" y="30" width="160" height="50" as="geometry" />
        </mxCell>
        <mxCell id="wS6DsiPgcqZ_qCfvMvsq-18" value="" style="shape=module;jettyWidth=8;jettyHeight=4;fontColor=#4277BB;strokeWidth=1;gradientColor=none;" parent="wS6DsiPgcqZ_qCfvMvsq-17" vertex="1">
          <mxGeometry x="1" width="20" height="20" relative="1" as="geometry">
            <mxPoint x="-27" y="7" as="offset" />
          </mxGeometry>
        </mxCell>
        <mxCell id="6s_eF9BZpqwzeVIdRA6w-1" value="Â«microserviceÂ»&lt;br&gt;&lt;b&gt;INSURANCES-API&lt;/b&gt;" style="html=1;dropTarget=0;fontColor=#4277BB;strokeWidth=1;gradientColor=none;" parent="K0Y5WrvYCHPc4mKxkMIb-27" vertex="1">
          <mxGeometry x="261" y="90" width="160" height="50" as="geometry" />
        </mxCell>
        <mxCell id="6s_eF9BZpqwzeVIdRA6w-2" value="" style="shape=module;jettyWidth=8;jettyHeight=4;fontColor=#4277BB;strokeWidth=1;gradientColor=none;" parent="6s_eF9BZpqwzeVIdRA6w-1" vertex="1">
          <mxGeometry x="1" width="20" height="20" relative="1" as="geometry">
            <mxPoint x="-27" y="7" as="offset" />
          </mxGeometry>
        </mxCell>
        <mxCell id="bQgNOvAwp8El5XNxdXVC-1" value="Â«microserviceÂ»&lt;br&gt;&lt;b&gt;COVERAGES-API&lt;/b&gt;" style="html=1;dropTarget=0;fontColor=#4277BB;strokeWidth=1;gradientColor=none;" parent="K0Y5WrvYCHPc4mKxkMIb-27" vertex="1">
          <mxGeometry x="340" y="30" width="160" height="50" as="geometry" />
        </mxCell>
        <mxCell id="bQgNOvAwp8El5XNxdXVC-2" value="" style="shape=module;jettyWidth=8;jettyHeight=4;fontColor=#4277BB;strokeWidth=1;gradientColor=none;" parent="bQgNOvAwp8El5XNxdXVC-1" vertex="1">
          <mxGeometry x="1" width="20" height="20" relative="1" as="geometry">
            <mxPoint x="-27" y="7" as="offset" />
          </mxGeometry>
        </mxCell>
        <mxCell id="47bnNQJKM1ESxpdhYp3s-1" value="Â«microserviceÂ»&lt;br&gt;&lt;b&gt;PROVIDERS-API&lt;/b&gt;" style="html=1;dropTarget=0;fontColor=#4277BB;strokeWidth=1;gradientColor=none;" parent="K0Y5WrvYCHPc4mKxkMIb-27" vertex="1">
          <mxGeometry x="670" y="30" width="160" height="50" as="geometry" />
        </mxCell>
        <mxCell id="47bnNQJKM1ESxpdhYp3s-2" value="" style="shape=module;jettyWidth=8;jettyHeight=4;fontColor=#4277BB;strokeWidth=1;gradientColor=none;" parent="47bnNQJKM1ESxpdhYp3s-1" vertex="1">
          <mxGeometry x="1" width="20" height="20" relative="1" as="geometry">
            <mxPoint x="-27" y="7" as="offset" />
          </mxGeometry>
        </mxCell>
        <mxCell id="5IpG2iZZQBgW5aD4oc6S-10" value="Â«microserviceÂ»&lt;br&gt;&lt;b&gt;SHORTAGES-API&lt;/b&gt;" style="html=1;dropTarget=0;fontColor=#4277BB;strokeWidth=1;gradientColor=none;" parent="K0Y5WrvYCHPc4mKxkMIb-27" vertex="1">
          <mxGeometry x="505" y="30" width="160" height="50" as="geometry" />
        </mxCell>
        <mxCell id="5IpG2iZZQBgW5aD4oc6S-11" value="" style="shape=module;jettyWidth=8;jettyHeight=4;fontColor=#4277BB;strokeWidth=1;gradientColor=none;" parent="5IpG2iZZQBgW5aD4oc6S-10" vertex="1">
          <mxGeometry x="1" width="20" height="20" relative="1" as="geometry">
            <mxPoint x="-27" y="7" as="offset" />
          </mxGeometry>
        </mxCell>
        <mxCell id="5IpG2iZZQBgW5aD4oc6S-12" value="Â«microserviceÂ»&lt;br&gt;&lt;b&gt;SPECIALTIES-API&lt;/b&gt;" style="html=1;dropTarget=0;fontColor=#4277BB;strokeWidth=1;gradientColor=none;" parent="K0Y5WrvYCHPc4mKxkMIb-27" vertex="1">
          <mxGeometry x="591" y="90" width="160" height="50" as="geometry" />
        </mxCell>
        <mxCell id="5IpG2iZZQBgW5aD4oc6S-13" value="" style="shape=module;jettyWidth=8;jettyHeight=4;fontColor=#4277BB;strokeWidth=1;gradientColor=none;" parent="5IpG2iZZQBgW5aD4oc6S-12" vertex="1">
          <mxGeometry x="1" width="20" height="20" relative="1" as="geometry">
            <mxPoint x="-27" y="7" as="offset" />
          </mxGeometry>
        </mxCell>
        <mxCell id="K0Y5WrvYCHPc4mKxkMIb-33" value="SM Module" style="swimlane;fontColor=#4277BB;strokeWidth=1;gradientColor=none;" parent="wS6DsiPgcqZ_qCfvMvsq-10" vertex="1">
          <mxGeometry x="1048" y="40" width="350" height="150" as="geometry" />
        </mxCell>
        <mxCell id="RWLTnyztTEmwwKZS63Fr-5" value="Â«microserviceÂ»&lt;br&gt;&lt;b&gt;EXAMS-API&lt;/b&gt;" style="html=1;dropTarget=0;fontColor=#4277BB;strokeWidth=1;gradientColor=none;" parent="K0Y5WrvYCHPc4mKxkMIb-33" vertex="1">
          <mxGeometry x="10" y="90" width="160" height="50" as="geometry" />
        </mxCell>
        <mxCell id="RWLTnyztTEmwwKZS63Fr-6" value="" style="shape=module;jettyWidth=8;jettyHeight=4;fontColor=#4277BB;strokeWidth=1;gradientColor=none;" parent="RWLTnyztTEmwwKZS63Fr-5" vertex="1">
          <mxGeometry x="1" width="20" height="20" relative="1" as="geometry">
            <mxPoint x="-27" y="7" as="offset" />
          </mxGeometry>
        </mxCell>
        <mxCell id="RWLTnyztTEmwwKZS63Fr-3" value="Â«microserviceÂ»&lt;br&gt;&lt;b&gt;CONSULTS-API&lt;/b&gt;" style="html=1;dropTarget=0;fontColor=#4277BB;strokeWidth=1;gradientColor=none;" parent="K0Y5WrvYCHPc4mKxkMIb-33" vertex="1">
          <mxGeometry x="180" y="30" width="160" height="50" as="geometry" />
        </mxCell>
        <mxCell id="RWLTnyztTEmwwKZS63Fr-4" value="" style="shape=module;jettyWidth=8;jettyHeight=4;fontColor=#4277BB;strokeWidth=1;gradientColor=none;" parent="RWLTnyztTEmwwKZS63Fr-3" vertex="1">
          <mxGeometry x="1" width="20" height="20" relative="1" as="geometry">
            <mxPoint x="-27" y="7" as="offset" />
          </mxGeometry>
        </mxCell>
        <mxCell id="RWLTnyztTEmwwKZS63Fr-1" value="Â«serverÂ»&lt;br&gt;&lt;b&gt;jBPM&lt;/b&gt;" style="html=1;dropTarget=0;fontColor=#4277BB;strokeWidth=1;gradientColor=none;" parent="K0Y5WrvYCHPc4mKxkMIb-33" vertex="1">
          <mxGeometry x="10" y="30" width="160" height="50" as="geometry" />
        </mxCell>
        <mxCell id="RWLTnyztTEmwwKZS63Fr-2" value="" style="shape=module;jettyWidth=8;jettyHeight=4;fontColor=#4277BB;strokeWidth=1;gradientColor=none;" parent="RWLTnyztTEmwwKZS63Fr-1" vertex="1">
          <mxGeometry x="1" width="20" height="20" relative="1" as="geometry">
            <mxPoint x="-27" y="7" as="offset" />
          </mxGeometry>
        </mxCell>
        <mxCell id="5IpG2iZZQBgW5aD4oc6S-8" value="Â«microserviceÂ»&lt;br&gt;&lt;b&gt;POLICIES-API&lt;/b&gt;" style="html=1;dropTarget=0;fontColor=#4277BB;strokeWidth=1;gradientColor=none;" parent="K0Y5WrvYCHPc4mKxkMIb-33" vertex="1">
          <mxGeometry x="180" y="90" width="160" height="50" as="geometry" />
        </mxCell>
        <mxCell id="5IpG2iZZQBgW5aD4oc6S-9" value="" style="shape=module;jettyWidth=8;jettyHeight=4;fontColor=#4277BB;strokeWidth=1;gradientColor=none;" parent="5IpG2iZZQBgW5aD4oc6S-8" vertex="1">
          <mxGeometry x="1" width="20" height="20" relative="1" as="geometry">
            <mxPoint x="-27" y="7" as="offset" />
          </mxGeometry>
        </mxCell>
        <mxCell id="K0Y5WrvYCHPc4mKxkMIb-56" value="" style="rounded=0;orthogonalLoop=1;jettySize=auto;html=1;endArrow=none;endFill=0;sketch=0;sourcePerimeterSpacing=0;targetPerimeterSpacing=0;dashed=1;exitX=0.25;exitY=1;exitDx=0;exitDy=0;" parent="wS6DsiPgcqZ_qCfvMvsq-10" target="K0Y5WrvYCHPc4mKxkMIb-58" edge="1" source="K0Y5WrvYCHPc4mKxkMIb-27">
          <mxGeometry relative="1" as="geometry">
            <mxPoint x="110" y="290" as="sourcePoint" />
          </mxGeometry>
        </mxCell>
        <mxCell id="K0Y5WrvYCHPc4mKxkMIb-57" value="" style="rounded=0;orthogonalLoop=1;jettySize=auto;html=1;endArrow=halfCircle;endFill=0;entryX=0.5;entryY=0.5;endSize=6;strokeWidth=1;sketch=0;dashed=1;exitX=0.5;exitY=0;exitDx=0;exitDy=0;" parent="wS6DsiPgcqZ_qCfvMvsq-10" source="K0Y5WrvYCHPc4mKxkMIb-14" target="K0Y5WrvYCHPc4mKxkMIb-58" edge="1">
          <mxGeometry relative="1" as="geometry">
            <mxPoint x="130" y="305" as="sourcePoint" />
          </mxGeometry>
        </mxCell>
        <mxCell id="K0Y5WrvYCHPc4mKxkMIb-58" value="" style="ellipse;whiteSpace=wrap;html=1;align=center;aspect=fixed;resizable=0;points=[];outlineConnect=0;sketch=0;" parent="wS6DsiPgcqZ_qCfvMvsq-10" vertex="1">
          <mxGeometry x="185" y="280" width="10" height="10" as="geometry" />
        </mxCell>
        <mxCell id="K0Y5WrvYCHPc4mKxkMIb-59" value="" style="rounded=0;orthogonalLoop=1;jettySize=auto;html=1;endArrow=none;endFill=0;sketch=0;sourcePerimeterSpacing=0;targetPerimeterSpacing=0;dashed=1;exitX=0.5;exitY=1;exitDx=0;exitDy=0;" parent="wS6DsiPgcqZ_qCfvMvsq-10" source="K0Y5WrvYCHPc4mKxkMIb-33" target="K0Y5WrvYCHPc4mKxkMIb-61" edge="1">
          <mxGeometry relative="1" as="geometry">
            <mxPoint x="630" y="305" as="sourcePoint" />
          </mxGeometry>
        </mxCell>
        <mxCell id="K0Y5WrvYCHPc4mKxkMIb-60" value="" style="rounded=0;orthogonalLoop=1;jettySize=auto;html=1;endArrow=halfCircle;endFill=0;entryX=0.5;entryY=0.5;endSize=6;strokeWidth=1;sketch=0;dashed=1;exitX=0.5;exitY=0;exitDx=0;exitDy=0;" parent="wS6DsiPgcqZ_qCfvMvsq-10" source="K0Y5WrvYCHPc4mKxkMIb-16" target="K0Y5WrvYCHPc4mKxkMIb-61" edge="1">
          <mxGeometry relative="1" as="geometry">
            <mxPoint x="670" y="305" as="sourcePoint" />
          </mxGeometry>
        </mxCell>
        <mxCell id="K0Y5WrvYCHPc4mKxkMIb-61" value="" style="ellipse;whiteSpace=wrap;html=1;align=center;aspect=fixed;resizable=0;points=[];outlineConnect=0;sketch=0;" parent="wS6DsiPgcqZ_qCfvMvsq-10" vertex="1">
          <mxGeometry x="890" y="280" width="10" height="10" as="geometry" />
        </mxCell>
        <mxCell id="K0Y5WrvYCHPc4mKxkMIb-62" value="&amp;lt;&amp;lt;register&amp;gt;&amp;gt;&lt;br&gt;&amp;lt;&amp;lt;discovery&amp;gt;&amp;gt;" style="endArrow=block;startArrow=block;endFill=1;startFill=1;html=1;rounded=0;dashed=1;entryX=0;entryY=0.5;entryDx=0;entryDy=0;exitX=0.5;exitY=1;exitDx=0;exitDy=0;" parent="wS6DsiPgcqZ_qCfvMvsq-10" source="K0Y5WrvYCHPc4mKxkMIb-27" target="K0Y5WrvYCHPc4mKxkMIb-3" edge="1">
          <mxGeometry x="0.3966" width="160" relative="1" as="geometry">
            <mxPoint x="210" y="250" as="sourcePoint" />
            <mxPoint x="300" y="330" as="targetPoint" />
            <Array as="points">
              <mxPoint x="360" y="305" />
            </Array>
            <mxPoint as="offset" />
          </mxGeometry>
        </mxCell>
        <mxCell id="K0Y5WrvYCHPc4mKxkMIb-63" value="&amp;lt;&amp;lt;register&amp;gt;&amp;gt;&lt;br&gt;&amp;lt;&amp;lt;discovery&amp;gt;&amp;gt;" style="endArrow=block;startArrow=block;endFill=1;startFill=1;html=1;rounded=0;dashed=1;entryX=0.25;entryY=1;entryDx=0;entryDy=0;exitX=1;exitY=0.5;exitDx=0;exitDy=0;" parent="wS6DsiPgcqZ_qCfvMvsq-10" source="K0Y5WrvYCHPc4mKxkMIb-3" target="K0Y5WrvYCHPc4mKxkMIb-33" edge="1">
          <mxGeometry x="-0.3913" width="160" relative="1" as="geometry">
            <mxPoint x="470" y="290" as="sourcePoint" />
            <mxPoint x="630" y="290" as="targetPoint" />
            <Array as="points">
              <mxPoint x="750" y="305" />
            </Array>
            <mxPoint as="offset" />
          </mxGeometry>
        </mxCell>
        <mxCell id="wS6DsiPgcqZ_qCfvMvsq-11" value="Data Layer" style="swimlane;fontColor=#4277BB;strokeWidth=1;gradientColor=none;" parent="wS6DsiPgcqZ_qCfvMvsq-8" vertex="1">
          <mxGeometry x="20" y="590" width="1090" height="120" as="geometry" />
        </mxCell>
        <mxCell id="K0Y5WrvYCHPc4mKxkMIb-5" value="Â«databaseÂ»&lt;br&gt;&lt;b&gt;Postgre SQL&lt;/b&gt;" style="html=1;dropTarget=0;fontColor=#4277BB;strokeWidth=1;gradientColor=none;" parent="wS6DsiPgcqZ_qCfvMvsq-11" vertex="1">
          <mxGeometry x="110" y="50" width="160" height="50" as="geometry" />
        </mxCell>
        <mxCell id="K0Y5WrvYCHPc4mKxkMIb-6" value="" style="shape=module;jettyWidth=8;jettyHeight=4;fontColor=#4277BB;strokeWidth=1;gradientColor=none;" parent="K0Y5WrvYCHPc4mKxkMIb-5" vertex="1">
          <mxGeometry x="1" width="20" height="20" relative="1" as="geometry">
            <mxPoint x="-27" y="7" as="offset" />
          </mxGeometry>
        </mxCell>
        <mxCell id="K0Y5WrvYCHPc4mKxkMIb-10" value="Â«databaseÂ»&lt;br&gt;&lt;b&gt;MongoDB&lt;/b&gt;" style="html=1;dropTarget=0;fontColor=#4277BB;strokeWidth=1;gradientColor=none;" parent="wS6DsiPgcqZ_qCfvMvsq-11" vertex="1">
          <mxGeometry x="815" y="50" width="160" height="50" as="geometry" />
        </mxCell>
        <mxCell id="K0Y5WrvYCHPc4mKxkMIb-11" value="" style="shape=module;jettyWidth=8;jettyHeight=4;fontColor=#4277BB;strokeWidth=1;gradientColor=none;" parent="K0Y5WrvYCHPc4mKxkMIb-10" vertex="1">
          <mxGeometry x="1" width="20" height="20" relative="1" as="geometry">
            <mxPoint x="-27" y="7" as="offset" />
          </mxGeometry>
        </mxCell>
        <mxCell id="K0Y5WrvYCHPc4mKxkMIb-18" style="edgeStyle=orthogonalEdgeStyle;rounded=0;orthogonalLoop=1;jettySize=auto;html=1;exitX=0.5;exitY=1;exitDx=0;exitDy=0;entryX=0.5;entryY=0;entryDx=0;entryDy=0;dashed=1;" parent="wS6DsiPgcqZ_qCfvMvsq-8" source="K0Y5WrvYCHPc4mKxkMIb-14" target="K0Y5WrvYCHPc4mKxkMIb-5" edge="1">
          <mxGeometry relative="1" as="geometry" />
        </mxCell>
        <mxCell id="K0Y5WrvYCHPc4mKxkMIb-19" style="edgeStyle=orthogonalEdgeStyle;rounded=0;orthogonalLoop=1;jettySize=auto;html=1;exitX=0.5;exitY=1;exitDx=0;exitDy=0;entryX=0.5;entryY=0;entryDx=0;entryDy=0;dashed=1;" parent="wS6DsiPgcqZ_qCfvMvsq-8" source="K0Y5WrvYCHPc4mKxkMIb-16" target="K0Y5WrvYCHPc4mKxkMIb-10" edge="1">
          <mxGeometry relative="1" as="geometry" />
        </mxCell>
      </root>
    </mxGraphModel>
  </diagram>
</mxfile>
